<?xml version="1.0" encoding="utf-8"?>
<!-- Generator: Adobe Illustrator 15.0.0, SVG Export Plug-In . SVG Version: 6.00 Build 0)  -->
<!DOCTYPE svg PUBLIC "-//W3C//DTD SVG 1.1//EN" "http://www.w3.org/Graphics/SVG/1.1/DTD/svg11.dtd">
<svg version="1.1" id="Layer_1" xmlns="http://www.w3.org/2000/svg" xmlns:xlink="http://www.w3.org/1999/xlink" x="0px" y="0px"
	 width="300px" height="300px" viewBox="0 0 300 300" enable-background="new 0 0 300 300" xml:space="preserve">
<circle fill="#006837" cx="155.67" cy="145.9" r="112.45"/>
<ellipse fill="#FFFFFF" stroke="#000000" stroke-miterlimit="10" cx="-138.9" cy="0" rx="0.37" ry="0"/>
<rect x="162" y="168" fill="#D9E021" width="107" height="107"/>
<linearGradient id="SVGID_1_" gradientUnits="userSpaceOnUse" x1="2.4907" y1="128.5068" x2="152.4307" y2="128.5068">
	<stop  offset="0" style="stop-color:#FFFFFF"/>
	<stop  offset="1" style="stop-color:#000000"/>
</linearGradient>
<path fill="url(#SVGID_1_)" d="M29.23,70.75l-26.74,37c0,0,35.9,24.91,37.36,26.01s4.03,13.55-8.42,22.34s-20.15,22.71-1.1,36.63
	s-24.18,61.91,19.05,13.92s29.3-27.47,42.12-66.67S72.09,89.8,106.89,96.03s63,13.19,32.6-23.81c-30.4-37,2.2-50.07-48.72-38.77
	S31.06,73.32,25.2,52.44s-12.82-1.1-10.62,5.49s0.73,1.1,3.66,8.42S29.23,70.75,29.23,70.75z"/>
</svg>
