<?xml version="1.0" encoding="utf-8"?>
<!-- Generator: Adobe Illustrator 15.0.0, SVG Export Plug-In . SVG Version: 6.00 Build 0)  -->
<!DOCTYPE svg PUBLIC "-//W3C//DTD SVG 1.1//EN" "http://www.w3.org/Graphics/SVG/1.1/DTD/svg11.dtd">
<svg version="1.1" id="Õ_xBA__x2264__x201E__x5F_1"
	 xmlns="http://www.w3.org/2000/svg" xmlns:xlink="http://www.w3.org/1999/xlink" x="0px" y="0px" width="595.28px"
	 height="841.89px" viewBox="0 0 595.28 841.89" enable-background="new 0 0 595.28 841.89" xml:space="preserve">
<g>
	<path fill="#FEBC11" d="M311.45,442.92c-0.6,9.57-8.85,16.85-18.43,16.25l-20.55-1.3c-9.57-0.6-16.85-8.85-16.24-18.43l7.8-123.92
		c0.6-9.57,8.85-16.85,18.43-16.24l20.55,1.29c9.58,0.6,16.85,8.85,16.25,18.43L311.45,442.92z"/>
	<g>
		<g>
			<g>
				<path fill="#FEBC11" d="M342.17,254.45c16.56-7.46,45.85-0.37,55.99-19.12c4.75-8.78,0.95-19.56-8.3-22.74
					c-11.21-3.85-21.06,2.04-27.81,10.78c-3.39,4.39-5.73,9.44-8.53,14.21c-2.43,4.15-6.93,7.78-8.96,11.95L342.17,254.45z"/>
				<path fill="#FEBC11" d="M252.11,248.78c-15.49-9.48-45.44-6.12-53.15-26c-3.6-9.3,1.51-19.53,11.08-21.52
					c11.61-2.41,20.65,4.67,26.24,14.19c2.81,4.78,4.5,10.09,6.68,15.17c1.89,4.42,5.9,8.58,7.39,12.98L252.11,248.78z"/>
				<path fill="#F78D25" d="M228.76,227.06c-2.54,4.28-13.13,0.82-17.86-1.98c-4.73-2.81-6.5-8.56-3.95-12.84
					c2.54-4.29,8.44-5.48,13.16-2.68C224.84,212.37,231.31,222.78,228.76,227.06z"/>
				<path fill="#F78D25" d="M369.77,235.94c1.99,4.57,12.93,2.46,17.96,0.27c5.04-2.19,7.52-7.67,5.54-12.24
					c-1.99-4.57-7.69-6.5-12.73-4.31C375.5,221.86,367.79,231.37,369.77,235.94z"/>
				<path fill="#FEBC11" d="M350.57,346.72c2.56-4.95,4.14-10.34,4.5-16.04c0.12-1.86,0.09-3.71-0.05-5.53
					c-0.04-4.69-1.29-10.96-0.75-15.63c0.13-1.18,0.51-2.89,1.06-4.66c8.37-14.46,13.68-29.66,14.41-41.27
					c1.99-31.62-28.46-59.27-68.03-61.76c-39.56-2.49-73.24,21.12-75.23,52.74c-0.73,11.58,2.62,27.28,9.07,42.65
					c0.33,1.86,0.5,3.65,0.49,4.85c-0.05,4.95-2.31,11.41-2.8,16.13c-0.29,1.56-0.5,3.15-0.6,4.76c-0.38,6.05,0.64,11.93,2.81,17.43
					c17-6.42,37.48-9.56,59.31-8.18C315.68,333.54,334.87,338.8,350.57,346.72z"/>
				
					<linearGradient id="SVGID_1_" gradientUnits="userSpaceOnUse" x1="211.1436" y1="223.2612" x2="296.3315" y2="286.4179" gradientTransform="matrix(0.998 0.0628 -0.0628 0.998 18.187 -18.8008)">
					<stop  offset="0" style="stop-color:#FFFFFF"/>
					<stop  offset="1" style="stop-color:#FEBC11"/>
				</linearGradient>
				<path fill="url(#SVGID_1_)" d="M335.05,337.06c2.07-3.98,3.47-17.08,3.76-21.67c0.1-1.5,0.07-2.98-0.04-4.46
					c-0.03-3.78-1.04-8.83-0.61-12.59c0.11-0.95,0.41-2.33,0.86-3.75c6.74-11.65,11.02-23.89,11.61-33.25
					c1.6-25.47-22.93-47.75-54.8-49.75c-31.87-2.01-59,17.01-60.61,42.49c-0.59,9.33,2.11,21.98,7.31,34.36
					c0.27,1.5,0.4,2.94,0.39,3.91c-0.04,3.99-1.86,9.19-2.25,12.99c-0.24,1.26-0.4,2.54-0.48,3.84c-0.31,4.87-0.7,17.54,1.05,21.97
					c13.7-5.18,33.58-7.45,51.17-6.34C309.26,325.87,322.41,330.67,335.05,337.06z"/>
				<g>
					<path fill="#FFEDC5" d="M290.77,375.76c26.67,1.68,50.21-10.54,59.8-29.03c-15.7-7.92-34.88-13.18-55.81-14.5
						c-21.83-1.38-42.31,1.76-59.31,8.18C242.99,359.5,264.53,374.11,290.77,375.76z"/>
				</g>
				<path d="M293.23,272.95c-0.17,2.64-2.44,4.64-5.08,4.48c-2.64-0.17-4.64-2.44-4.48-5.08c0.17-2.64,2.52-5.92,5.16-5.75
					C291.47,266.76,293.4,270.31,293.23,272.95z"/>
				<path d="M311.5,274.1c-0.17,2.64-2.44,4.64-5.07,4.48c-2.64-0.17-4.64-2.44-4.48-5.08c0.17-2.64,2.52-5.91,5.16-5.75
					C309.74,267.91,311.67,271.46,311.5,274.1z"/>
				<path fill="#9B8579" d="M270.72,180.39c-0.79-3.98-4.65-6.57-8.63-5.78c-3.98,0.79-6.57,4.65-5.78,8.63
					c0.54,2.75,2.57,4.81,5.08,5.57l4.52,22.85c0.23,1.19,1.94,1.86,3.8,1.5c1.86-0.37,3.19-1.64,2.95-2.83l-4.52-22.85
					C270.17,185.81,271.26,183.14,270.72,180.39z"/>
				<path fill="#9B8579" d="M349.91,189.33c1.12-3.9-1.13-7.97-5.03-9.08c-3.9-1.12-7.96,1.13-9.08,5.03
					c-0.73,2.55,0,5.16,1.68,6.98l-6.48,22.58c-0.34,1.17,0.87,2.54,2.7,3.07c1.83,0.52,3.58,0,3.92-1.17l6.37-22.2
					C346.72,194.12,349.1,192.17,349.91,189.33z"/>
				<g>
					<path fill="#9B8579" d="M240.25,274.75c0.43-6.88-4.79-12.81-11.67-13.24c-0.71-0.04-1.41-0.02-2.09,0.05
						c0.44,7.34,2.13,15.72,4.88,24.35C236.23,284.45,239.91,280.11,240.25,274.75z"/>
					<path fill="#9B8579" d="M369.55,255.77c-0.5-0.09-1.01-0.17-1.53-0.2c-6.88-0.43-12.81,4.79-13.25,11.67
						c-0.43,6.83,4.72,12.71,11.52,13.23c1.94-6.07,3.12-11.81,3.44-16.87C369.9,260.95,369.82,258.34,369.55,255.77z"/>
				</g>
				<path fill="#9B8579" d="M261.87,345.65c-3.39-3.1-6.92-1.92-8.61-0.06c-1.69,1.85-2.98,4.35,0.42,7.44
					c3.4,3.09,10.18,5.62,11.88,3.76C267.25,354.93,265.27,348.74,261.87,345.65z"/>
				<path fill="#9B8579" d="M322,348.79c3.75-2.65,7.11-1.04,8.55,1.02c1.45,2.05,2.41,4.69-1.35,7.33
					c-3.75,2.64-10.81,4.3-12.25,2.24C315.51,357.32,318.24,351.43,322,348.79z"/>
			</g>
			<g>
				<g>
					<g>
						<polygon fill="#7BD3F7" points="332.95,169.26 274.21,167.37 273.7,167.35 272.78,162.98 334.91,164.99 333.7,169.29 						
							"/>
						<polygon fill="#7BD3F7" points="330.18,179.23 276.39,177.49 275.85,177.47 275.15,174.19 275.93,174.21 331.1,175.99 
							331.79,176.01 330.88,179.25 						"/>
						<polygon fill="#7BD3F7" points="328.02,189.34 278.02,187.72 278.02,187.72 277.33,184.43 277.33,184.43 328.93,186.1 						
							"/>
						<polygon fill="#7BD3F7" points="325.16,199.42 280.2,197.97 280.2,197.97 279.5,194.68 326.08,196.19 						"/>
						<polygon fill="#7BD3F7" points="323.22,206.24 322.42,209.5 282.38,208.2 281.68,204.89 282.21,204.91 						"/>
						<polygon fill="#D3E27E" points="331.79,176.01 275.15,174.18 275.15,174.19 273.7,167.35 333.7,169.29 						"/>
						<polygon fill="#D3E27E" points="330.88,179.25 328.93,186.1 277.33,184.43 277.33,184.43 275.85,177.47 275.85,177.47 						
							"/>
						<polygon fill="#D3E27E" points="279.5,194.68 326.08,196.19 328.02,189.34 278.02,187.72 278.02,187.72 						"/>
						<polygon fill="#D3E27E" points="323.22,206.27 282.21,204.94 281.67,204.93 280.2,197.97 280.2,197.97 325.16,199.42 						
							"/>
					</g>
					<circle fill="#F9A01B" cx="280.55" cy="167.32" r="2.71"/>
					<circle fill="#F9A01B" cx="288.37" cy="174.36" r="2.26"/>
					<path fill="#F9A01B" d="M316.6,203.04c-0.06,1.87-1.62,3.34-3.5,3.28c-1.87-0.06-3.34-1.63-3.28-3.5
						c0.06-1.87,1.62-3.34,3.5-3.28C315.2,199.6,316.67,201.17,316.6,203.04z"/>
					<circle fill="#F9A01B" cx="317.67" cy="169.84" r="3.39"/>
					<path fill="#F9A01B" d="M329.39,172.42c-0.04,1.25-1.09,2.23-2.33,2.19c-1.25-0.04-2.23-1.09-2.19-2.33
						c0.04-1.25,1.08-2.23,2.33-2.19C328.45,170.12,329.44,171.17,329.39,172.42z"/>
					<path fill="#F9A01B" d="M320.52,178.92c-0.04,1.25-1.09,2.23-2.34,2.19c-1.25-0.04-2.22-1.09-2.18-2.33
						c0.04-1.25,1.08-2.23,2.33-2.19C319.58,176.62,320.56,177.67,320.52,178.92z"/>
					<circle fill="#F9A01B" cx="304.15" cy="195.48" r="2.26"/>
					<circle fill="#F9A01B" cx="282.56" cy="182.92" r="3.84"/>
					<circle fill="#F9A01B" cx="295.24" cy="182.2" r="2.71"/>
					<circle fill="#F9A01B" cx="287.02" cy="204.5" r="2.71"/>
					<path fill="#F9A01B" d="M295.99,168.07c-0.06,1.87-1.63,3.34-3.5,3.28c-1.87-0.06-3.34-1.63-3.28-3.5
						c0.06-1.87,1.63-3.34,3.5-3.28C294.58,164.63,296.05,166.2,295.99,168.07z"/>
					<path fill="#F9A01B" d="M327.27,186.04c-0.07,2.12-1.85,3.79-3.96,3.72c-2.12-0.07-3.79-1.84-3.72-3.97
						c0.07-2.12,1.84-3.78,3.96-3.71C325.67,182.15,327.34,183.92,327.27,186.04z"/>
					<path fill="#F9A01B" d="M312.89,187.84c-0.05,1.5-1.3,2.67-2.8,2.62c-1.49-0.05-2.67-1.3-2.62-2.8c0.05-1.5,1.3-2.67,2.8-2.62
						C311.76,185.09,312.94,186.34,312.89,187.84z"/>
					<circle fill="#F9A01B" cx="287.7" cy="191.05" r="2.26"/>
					<circle fill="#F9A01B" cx="294.93" cy="197.82" r="3.39"/>
					<path fill="#F9A01B" d="M312.89,176.03c-0.07,2.12-1.85,3.79-3.97,3.72c-2.12-0.07-3.79-1.84-3.71-3.96
						c0.07-2.12,1.84-3.78,3.96-3.72C311.3,172.13,312.96,173.91,312.89,176.03z"/>
					<path fill="#F9A01B" d="M320.32,193.25c-0.04,1.25-1.09,2.23-2.34,2.19c-1.24-0.04-2.22-1.09-2.18-2.33
						c0.04-1.25,1.08-2.23,2.33-2.19C319.38,190.96,320.36,192,320.32,193.25z"/>
				</g>
				<g>
					<path fill="#F27FAC" d="M293.81,161.34c0,0-22.62-17.57,1.54-22.38c0,0,9.53-3.05,7.78,19.41c-0.09,1.13-0.06,1.06-0.21,2.32
						c0,0,0.69,0.03,2.06-1.69c3.92-4.93,12.2-13.91,17.75-9.92c0,0,11.28,12.43-0.5,15.57c0,0-8.35,1.68-18.33-0.59L302.45,209
						l-6.03-0.19l1.46-44.95C297.88,163.86,295.52,163.15,293.81,161.34z M323.04,159.14c0,0,0.2-6.25-4.85-6.41
						c0,0-3.58,0.14-10.57,9.18C307.62,161.91,322.88,163.85,323.04,159.14z M299.62,160.65c1.69-17.29-4.49-16.85-4.49-16.85
						c-6.65-0.21-5.34,6.1-5.34,6.1C293.42,158.06,299.62,160.65,299.62,160.65z"/>
					
						<linearGradient id="SVGID_2_" gradientUnits="userSpaceOnUse" x1="291.1201" y1="213.1416" x2="308.6183" y2="217.0886" gradientTransform="matrix(0.9994 0.0323 -0.0323 0.9994 -9.4712 -76.9517)">
						<stop  offset="0" style="stop-color:#FFFFFF"/>
						<stop  offset="1" style="stop-color:#F27FAC"/>
					</linearGradient>
					<path fill="url(#SVGID_2_)" d="M291.46,140.75c-8.12,3.43-6.36,8.96-4.58,11.79c2.25,3.58,4.75,7.84,8.38,8.3
						c-1.78-1.9-6.66-9.4-6.29-13.02c0.43-4.23,5.04-5.88,4.54-7.47L291.46,140.75z"/>
					
						<linearGradient id="SVGID_3_" gradientUnits="userSpaceOnUse" x1="326.2734" y1="215.6338" x2="330.4786" y2="221.7078" gradientTransform="matrix(0.9994 0.0323 -0.0323 0.9994 -9.4712 -76.9517)">
						<stop  offset="0" style="stop-color:#FFFFFF"/>
						<stop  offset="1" style="stop-color:#F27FAC"/>
					</linearGradient>
					<path fill="url(#SVGID_3_)" d="M320.73,148.76c-1.97,0.09-9.18,0.46-15.09,13.19c0,0,6.76-6.47,7.27-6.92
						c3.71-3.26,10.28-4.46,9.52-5.19L320.73,148.76z"/>
				</g>
			</g>
		</g>
	</g>
	<circle fill="#9B8579" cx="270.26" cy="406.72" r="8.53"/>
	<g>
		<path fill="#9B8579" d="M315.06,383.26c-6.48,0-11.73,5.25-11.73,11.73c0,6.03,4.55,10.99,10.41,11.65l1.47-23.38
			C315.15,383.27,315.11,383.26,315.06,383.26z"/>
	</g>
</g>
<rect x="9" y="133" fill="none" width="576" height="576"/>
<g>
	<path fill="#62C5EC" d="M500.13,357.32c13.2,55.99-33.69,66.75-75.13,63.62c-41.44-3.13-83.5-17.95-65.24-74.22
		c13.04-40.17,33.84-61.88,75.28-58.75C476.48,291.11,489.98,314.22,500.13,357.32z"/>
	
		<linearGradient id="SVGID_4_" gradientUnits="userSpaceOnUse" x1="356.8779" y1="319.8389" x2="404.4791" y2="346.2235" gradientTransform="matrix(0.9972 0.0753 -0.0753 0.9972 22.8862 -31.4717)">
		<stop  offset="0" style="stop-color:#FFFFFF"/>
		<stop  offset="0.2168" style="stop-color:#E2F4FB"/>
		<stop  offset="0.6847" style="stop-color:#97D9F2"/>
		<stop  offset="1" style="stop-color:#62C5EC"/>
	</linearGradient>
	<path fill="url(#SVGID_4_)" d="M427.36,297.06c-20.06-5.12-45.19,10.13-56.39,44.99c-7.33,22.82-5.63,50.46,16.32,58.94
		c14.69,5.67,19.23-55.52,29.31-65.49c2.26-2.24,5.23-3.78,8.11-4.84c3.7-1.36,7.74-1.06,10.92-3.79
		C452.01,312.77,434.71,298.93,427.36,297.06z"/>
	<path d="M429.29,345.55c-0.16,2.14-2.03,3.74-4.17,3.58c-2.14-0.16-3.74-2.03-3.58-4.17c0.16-2.14,2.11-4.78,4.25-4.62
		C427.92,340.5,429.45,343.4,429.29,345.55z"/>
	<path fill="#FFECD5" d="M450.82,327c-10.37-0.78-16.2,3.71-18.48,15.82c-1.62,8.58,3.74,15.7,11.58,18.52
		c13.12,4.72,19.22,4.3,27.68-8.21C479.63,341.26,471.08,328.53,450.82,327L450.82,327z"/>
	<path d="M443.4,346.56c-0.16,2.14-2.02,3.75-4.17,3.59c-2.14-0.16-3.74-2.03-3.58-4.17c0.16-2.14,2.11-4.77,4.25-4.61
		C442.03,341.52,443.56,344.42,443.4,346.56z"/>
	<path d="M445.46,368.05c-0.24,3.17-6.91,9.03-14.56,8.46s-13.37-7.37-13.13-10.55c0.24-3.17,6.63-5.27,14.28-4.69
		C439.69,361.85,445.7,364.89,445.46,368.05z"/>
	<g>
		<g>
			<path d="M427.05,382.48c-2.06-0.2-3.71-1.92-3.77-1.94l0,0l0.95-0.97c0,0,0.37,0.37,0.95,0.75l0,0c0.57,0.39,1.33,0.77,1.97,0.81
				l0,0c1.02,0.06,2.25-0.43,2.67-4.99l0,0l0,0l1.35,0.1c-0.18,2.38-0.66,3.93-1.39,4.94l0,0c-0.71,1-1.76,1.38-2.68,1.31l0,0
				C427.08,382.49,427.07,382.49,427.05,382.48L427.05,382.48z"/>
		</g>
		<g>
			<path d="M430.57,381.24c-0.57-1.11-0.81-2.71-0.64-5.09l0,0h0l1.35,0.1c-0.27,4.57,0.88,5.24,1.9,5.34l0,0
				c0.64,0.05,1.45-0.2,2.07-0.5l0,0c0.63-0.29,1.05-0.6,1.05-0.6l0,0l0.8,1.1c-0.07,0.01-1.95,1.47-4.02,1.36l0,0
				c-0.02,0-0.04,0-0.06,0l0,0C432.11,382.87,431.13,382.33,430.57,381.24L430.57,381.24z"/>
		</g>
	</g>
	<path fill="#46B5E8" d="M525.41,383.29c14.2-22.31-30.96-77.6-43.61-72.12c-5.5,2.39-4.94,130.18,27.65,92.87
		C516.34,396.15,520.7,390.69,525.41,383.29z"/>
	<path fill="#46B5E8" d="M329.62,368.51c-10.69-24.19,42.27-72.07,53.95-64.75c5.08,3.18-14.65,129.44-41.28,87.66
		C336.65,382.58,333.16,376.53,329.62,368.51z"/>
</g>
<g>
	<g>
		<g>
			<path fill="#F493B1" d="M243.62,350.2c26.1,56.79-21.52,78.33-66.33,83.92c-44.81,5.59-92.78-1.15-85.45-65
				c5.24-45.58,22.72-73.17,67.53-78.76C204.18,284.77,223.53,306.48,243.62,350.2z"/>
			
				<linearGradient id="SVGID_5_" gradientUnits="userSpaceOnUse" x1="72.043" y1="330.4541" x2="123.7636" y2="359.1221" gradientTransform="matrix(0.9923 -0.1237 0.1237 0.9923 -32.5889 19.1606)">
				<stop  offset="0" style="stop-color:#FFFFFF"/>
				<stop  offset="0.3045" style="stop-color:#FCE2EA"/>
				<stop  offset="0.9629" style="stop-color:#F497B4"/>
				<stop  offset="1" style="stop-color:#F493B1"/>
			</linearGradient>
			<path fill="url(#SVGID_5_)" d="M153.46,304.11c-22.46-1.14-45.95,20.51-50.38,60.04c-2.9,25.88,4.85,54.95,30.06,59.25
				c16.86,2.88,8.54-63.26,17.12-76.05c1.93-2.87,4.76-5.15,7.6-6.91c3.64-2.24,8.01-2.79,10.81-6.39
				C183.08,315.54,161.68,304.52,153.46,304.11z"/>
			<path d="M165.64,352.89c0.29,2.32-1.36,4.43-3.67,4.71c-2.31,0.29-4.43-1.35-4.72-3.67c-0.29-2.32,1.22-5.54,3.53-5.83
				C163.1,347.82,165.35,350.58,165.64,352.89z"/>
			<path d="M180.88,350.94c0.29,2.31-1.35,4.42-3.67,4.71c-2.31,0.29-4.42-1.36-4.71-3.67c-0.29-2.31,1.21-5.54,3.53-5.83
				C178.34,345.87,180.59,348.63,180.88,350.94z"/>
			<g>
				<path fill="#F493B1" d="M194.61,299.07c-2.39-11.14,19.54-27.96,28.19-25.54c3.76,1.05,11.82,52.96-1.77,40.15
					C216.06,309,195.81,304.67,194.61,299.07z"/>
				<path fill="#FFECD5" d="M201.39,302.44c-4.64-7.16,11.6-20.23,17.65-18.53c2.64,0.74,6.53,35.94-1.23,28.11
					C214.44,308.61,203.57,305.8,201.39,302.44z"/>
			</g>
			<g>
				<path fill="#F493B1" d="M126.23,307.6c-0.42-11.38-25.8-22.32-33.59-17.84c-3.39,1.95,1.54,54.24,11.57,38.49
					C107.87,322.48,126.44,313.31,126.23,307.6z"/>
				<path fill="#FFECD5" d="M120.48,312.52c2.74-8.08-16.21-16.76-21.66-13.63c-2.38,1.37,2.49,36.45,8.09,26.94
					C109.34,321.71,119.19,316.31,120.48,312.52z"/>
			</g>
			<g>
				<path fill="none" d="M197.81,365.88c8.9-6.15,20.77-6.28,20.77-6.28"/>
				<path fill="#834E30" d="M198.5,366.35c5.96-3.89,13.27-6.04,20.4-6.18c1.21-0.02,0.11-1.16-0.65-1.15
					c-7.38,0.14-14.97,2.35-21.14,6.38C196.33,365.92,197.94,366.72,198.5,366.35L198.5,366.35z"/>
			</g>
			<g>
				<path fill="none" d="M200.02,370.21c5.96-1.79,10.77-3.01,18.68-2.16"/>
				<path fill="#834E30" d="M200.55,370.85c6.18-1.84,12.02-2.77,18.51-2.16c1.04,0.1-0.1-1.23-0.71-1.29
					c-6.57-0.62-12.56,0.29-18.86,2.16C198.64,369.82,199.97,371.02,200.55,370.85L200.55,370.85z"/>
			</g>
			<g>
				<path fill="none" d="M200,375.77c8.89-2.53,18.16-0.04,18.16-0.04"/>
				<path fill="#834E30" d="M200.13,376.45c5.71-1.47,11.95-1.54,17.69-0.04c0.92,0.24,1.85-1.03,0.68-1.34
					c-6.03-1.57-12.63-1.51-18.63,0.03C198.77,375.38,199.02,376.74,200.13,376.45L200.13,376.45z"/>
			</g>
			<g>
				<path fill="none" d="M145.8,372.36c-10.14-3.77-21.68-0.99-21.68-0.99"/>
				<path fill="#834E30" d="M145.94,371.84c-7.07-2.42-15.06-2.7-22.35-1c-1.05,0.24,0.4,1.24,1.05,1.08
					c6.85-1.6,14.37-1.31,21.01,0.97C146.73,373.25,146.99,372.2,145.94,371.84L145.94,371.84z"/>
			</g>
			<g>
				<path fill="none" d="M144.72,377.1c-6.21-0.27-11.18-0.27-18.64,2.49"/>
				<path fill="#834E30" d="M144.37,376.46c-6.6-0.27-12.69,0.31-18.95,2.54c-0.62,0.22,0.72,1.42,1.33,1.2
					c6.09-2.17,11.9-2.71,18.32-2.45C146.13,377.79,144.98,376.48,144.37,376.46L144.37,376.46z"/>
			</g>
			<g>
				<path fill="none" d="M146.1,382.49c-9.24-0.27-17.61,4.42-17.61,4.42"/>
				<path fill="#834E30" d="M146.22,381.79c-6.31-0.03-12.75,1.57-18.3,4.62c-1.05,0.58,0.33,1.43,1.14,0.98
					c5.11-2.81,11.14-4.24,16.93-4.22C147.03,383.19,147.42,381.8,146.22,381.79L146.22,381.79z"/>
			</g>
			
				<ellipse transform="matrix(0.9923 -0.1237 0.1237 0.9923 -45.098 24.2456)" fill="#FFECD5" cx="172.76" cy="375.41" rx="21.19" ry="12.66"/>
			<path d="M178.59,363.81c0.21,1.68-2.66,5.44-6.71,5.95c-4.05,0.5-7.75-2.44-7.96-4.12c-0.21-1.68,2.9-3.45,6.95-3.95
				C174.93,361.18,178.38,362.13,178.59,363.81z"/>
			<g>
				<g>
					<path d="M169.56,376.87c-2.23,0.23-4.36-1.25-4.43-1.26l0,0l0.8-1.23c0-0.01,0.47,0.31,1.17,0.59l0,0
						c0.69,0.3,1.58,0.53,2.28,0.44l0,0c1.09-0.16,2.31-0.95,1.77-5.89l0,0l1.46-0.18c0.32,2.57,0.15,4.32-0.42,5.56l0,0
						c-0.54,1.22-1.58,1.85-2.57,1.97l0,0C169.6,376.87,169.58,376.87,169.56,376.87L169.56,376.87z"/>
				</g>
				<g>
					<path d="M173.05,374.79c-0.85-1.06-1.45-2.71-1.77-5.28l0,0l1.46-0.18c0.7,4.93,2.07,5.39,3.17,5.28l0,0
						c0.69-0.08,1.5-0.53,2.09-0.99l0,0c0.61-0.45,0.99-0.86,0.99-0.86l0,0l1.08,1c-0.06,0.03-1.76,1.99-3.98,2.31l0,0
						c-0.02,0-0.04,0.01-0.06,0.01l0,0C175.03,376.19,173.87,375.83,173.05,374.79L173.05,374.79z"/>
				</g>
			</g>
			<g>
				<path fill="none" d="M142.38,300.29c4.01,10.37,2.94,23.6,2.94,23.6"/>
				<path fill="#E971A1" d="M137.62,302.26c2.35,6.55,3.12,13.94,2.6,20.89c-0.49,6.6,9.7,8.11,10.19,1.49
					c0.66-8.85-0.27-17.96-3.28-26.32C144.89,292.07,135.37,296.03,137.62,302.26L137.62,302.26z"/>
			</g>
			<g>
				<path fill="none" d="M160.47,296.8c5.26,8.49,3.76,26.22,3.76,26.22"/>
				<path fill="#E971A1" d="M155.72,298.77c3.88,6.84,4.04,15.82,3.42,23.5c-0.53,6.6,9.67,8.11,10.2,1.49
					c0.75-9.37,0.64-20.56-4.1-28.94C162.01,289.13,152.44,292.99,155.72,298.77L155.72,298.77z"/>
			</g>
			<g>
				<path fill="none" d="M179.61,295.65c6.95,12.47,3.5,23.16,3.5,23.16"/>
				<path fill="#E971A1" d="M174.85,297.62c2.41,4.6,3.8,9.16,4,14.36c0.05,1.35-0.17,2.73-0.38,4.06
					c-0.09,0.57-0.62,2.47-0.09,0.74c-1.93,6.29,7.52,10.4,9.47,4.06c2.77-9.02,0.82-18.97-3.48-27.17
					C181.31,287.85,171.76,291.73,174.85,297.62L174.85,297.62z"/>
			</g>
		</g>
	</g>
</g>
<g>
	<path fill="#EE4498" d="M146.52,237.93c-9.87,42.65-16.02,61.97-16.02,61.97c30.91,11.99,54.04-8.11,54.04-8.11
		C165.93,262.97,146.52,237.93,146.52,237.93z"/>
	<path fill="#F9A01B" d="M149.39,236.46l1.09-4.12c0.1-1.88-1.22-0.62-1.22-0.62l-1.98,4.03c-3.15-10.66-1.21,0.22-1.21,0.22
		l-3.7-2.54c-1.8-0.66-0.97,0.83-0.97,0.83l3.34,3.5c-10.63-1.25,0.08,0.9,0.08,0.9l-3.68,2.71c-1.24,1.34,0.35,1.33,0.35,1.33
		l4.46-1.94c-3.14,9.55,0.89,0.38,0.89,0.38l1.22,3.8c1.42,1.74,1.55-0.46,1.55-0.46l-0.54-3.76c8.79,4.79,0.53-0.87,0.53-0.87
		l3.97-0.15c2.09-0.61,0.27-1.62,0.27-1.62l-3.97-0.57C159.59,232.29,149.39,236.46,149.39,236.46z"/>
	<path fill="#F9A01B" d="M150.06,258.33c-0.44,2.48,1.22,4.84,3.7,5.29c2.48,0.44,4.84-1.22,5.28-3.7c0.44-2.48-1.21-4.84-3.7-5.28
		C152.86,254.2,150.49,255.85,150.06,258.33z"/>
	<path fill="#F9A01B" d="M164.76,287.03c-0.44,2.48,1.21,4.84,3.69,5.28c2.48,0.44,4.84-1.21,5.28-3.7
		c0.44-2.47-1.22-4.84-3.69-5.28C167.56,282.9,165.2,284.55,164.76,287.03z"/>
	<path fill="#F9A01B" d="M140.66,274.56c-0.44,2.48,1.22,4.84,3.7,5.29c2.48,0.44,4.84-1.22,5.28-3.7c0.44-2.48-1.22-4.85-3.69-5.29
		C143.46,270.42,141.1,272.08,140.66,274.56z"/>
	<circle fill="#F9A01B" cx="149.8" cy="250.29" r="2.28"/>
	<path fill="#F9A01B" d="M146.23,284.7c-0.22,1.24,0.61,2.42,1.85,2.64c1.24,0.22,2.42-0.61,2.64-1.85
		c0.22-1.24-0.61-2.42-1.84-2.64C147.63,282.63,146.45,283.46,146.23,284.7z"/>
	<path fill="#F9A01B" d="M161.67,270.59c-0.22,1.24,0.61,2.42,1.85,2.64c1.24,0.22,2.42-0.61,2.64-1.85
		c0.22-1.24-0.61-2.42-1.85-2.64C163.07,268.53,161.89,269.36,161.67,270.59z"/>
	<circle fill="#F9A01B" cx="140.92" cy="293.33" r="3.65"/>
	<path fill="#F9A01B" d="M154.76,296.67c-0.35,1.98,0.97,3.87,2.96,4.23c1.98,0.35,3.88-0.97,4.23-2.96
		c0.35-1.98-0.97-3.88-2.96-4.23C157.01,293.36,155.11,294.68,154.76,296.67z"/>
	<path fill="#F9A01B" d="M154.95,281.08c-0.35,1.98,0.97,3.88,2.95,4.22c1.98,0.35,3.87-0.97,4.23-2.96
		c0.35-1.98-0.97-3.88-2.95-4.23C157.19,277.78,155.3,279.1,154.95,281.08z"/>
</g>
<path fill="#603913" d="M43.7,466.05c0-33.52,27.17-60.69,60.69-60.69h385.17c33.52,0,60.69,27.17,60.69,60.69v164.9
	c0,33.52-27.17,60.69-60.69,60.69H104.39c-33.52,0-60.69-27.17-60.69-60.69V466.05z"/>
<g>
	<g>
		<path fill="#44C8F5" d="M507.4,428.81c-4.25-2.58-9.7-1.73-12.93,1.79c-0.63-4.69-4.62-8.41-9.62-8.63c0,0,0,0,0,0
			c-4.33-0.19-8.16,2.3-9.79,5.97c-1.56-3.54-5.16-6.02-9.35-6.02c-4.18,0-7.77,2.47-9.33,6c-1.56-3.53-5.16-6-9.34-6
			c-4.18,0-7.78,2.47-9.33,6c-1.56-3.53-5.15-6-9.33-6c-4.19,0-7.78,2.47-9.34,6c-1.56-3.53-5.15-6-9.33-6c-4.19,0-7.78,2.47-9.34,6
			c-1.56-3.53-5.15-6-9.33-6c-4.18,0-7.78,2.47-9.34,6c-1.56-3.53-5.16-6-9.34-6c-4.18,0-7.78,2.47-9.33,6c-1.56-3.53-5.16-6-9.33-6
			c-4.18,0-7.78,2.47-9.34,6c-1.56-3.53-5.15-6-9.34-6c-4.18,0-7.78,2.47-9.34,6c-1.56-3.53-5.16-6-9.34-6c-4.18,0-7.78,2.47-9.34,6
			c-1.56-3.53-5.15-6-9.33-6c-4.18,0-7.77,2.47-9.33,6c-1.56-3.53-5.15-6-9.34-6c-4.18,0-7.78,2.47-9.34,6c-1.56-3.53-5.15-6-9.33-6
			c-4.18,0-7.78,2.47-9.34,6c-1.56-3.53-5.15-6-9.34-6c-4.18,0-7.78,2.47-9.33,6c-1.56-3.53-5.16-6-9.34-6c-4.19,0-7.78,2.47-9.34,6
			c-1.56-3.53-5.15-6-9.33-6c-4.19,0-7.78,2.47-9.34,6c-1.56-3.53-5.15-6-9.34-6c-4.19,0-7.78,2.47-9.34,6c-1.56-3.53-5.15-6-9.33-6
			c-4.19,0-7.78,2.47-9.34,6c-1.56-3.53-5.16-6-9.34-6c-4.19,0-7.78,2.47-9.34,6c-1.56-3.53-5.15-6-9.33-6c-4.18,0-7.78,2.47-9.34,6
			c-1.59-3.59-5.28-6.07-9.53-5.99c-5,0.09-9.09,3.7-9.85,8.37c-3.14-3.6-8.56-4.59-12.88-2.12c0,0.01,0,0.01,0,0.01
			c-4.31,2.47-6.07,7.57-4.39,12c-4.53-1.65-9.75,0.07-12.29,4.28c0,0,0,0,0,0c-2.54,4.22-1.53,9.52,2.15,12.59
			c-4.78,0.73-8.47,4.72-8.58,9.61c-0.09,4.16,2.45,7.77,6.13,9.33c-3.61,1.52-6.14,5.04-6.14,9.13s2.53,7.6,6.14,9.12
			c-3.61,1.53-6.14,5.04-6.14,9.13c0,4.09,2.53,7.6,6.14,9.12c-3.61,1.52-6.14,5.04-6.14,9.12c0,4.09,2.53,7.6,6.14,9.13
			c-3.61,1.53-6.14,5.04-6.14,9.12s2.53,7.6,6.14,9.13c-3.61,1.52-6.14,5.04-6.14,9.13c0,4.09,2.53,7.6,6.14,9.12
			c-3.61,1.52-6.14,5.04-6.14,9.13c0,4.09,2.53,7.6,6.14,9.13c-3.61,1.52-6.14,5.03-6.14,9.12c0,4.09,2.53,7.6,6.14,9.13
			c-3.61,1.53-6.14,5.04-6.14,9.13c0,4.09,2.53,7.61,6.14,9.13c-3.66,1.55-6.2,5.13-6.14,9.28c0.07,4.89,3.75,8.9,8.53,9.66
			c-3.7,3.05-4.74,8.34-2.22,12.57c2.51,4.23,7.72,5.97,12.27,4.35c-1.7,4.42,0.03,9.53,4.33,12.03c4.3,2.5,9.73,1.54,12.89-2.04
			c0.73,4.67,4.8,8.3,9.8,8.42c4.27,0.1,7.99-2.38,9.58-5.99c1.56,3.53,5.16,6.01,9.34,6.01s7.78-2.47,9.34-6.01
			c1.56,3.53,5.15,6.01,9.33,6.01c4.18,0,7.78-2.47,9.34-6c1.56,3.53,5.15,6,9.33,6c4.19,0,7.78-2.47,9.34-6
			c1.56,3.53,5.15,6,9.34,6c4.18,0,7.78-2.47,9.34-6c1.56,3.53,5.15,6,9.34,6c4.18,0,7.77-2.47,9.33-6c1.56,3.53,5.15,6,9.34,6
			c4.18,0,7.78-2.47,9.34-6.01c1.56,3.53,5.15,6.01,9.33,6.01c4.18,0,7.78-2.47,9.34-6c1.56,3.53,5.15,6,9.34,6
			c4.18,0,7.77-2.47,9.33-6c1.56,3.53,5.16,6,9.34,6c4.18,0,7.77-2.47,9.33-6.01c1.56,3.53,5.15,6.01,9.33,6.01
			c4.19,0,7.78-2.47,9.34-6c1.56,3.53,5.15,6,9.34,6c4.18,0,7.77-2.47,9.34-6c1.56,3.53,5.15,6,9.33,6c4.19,0,7.78-2.47,9.34-6
			c1.56,3.53,5.15,6,9.34,6c4.18,0,7.77-2.47,9.33-6.01c1.56,3.53,5.15,6.01,9.33,6.01c4.18,0,7.78-2.47,9.34-6
			c1.56,3.53,5.15,6,9.33,6c4.18,0,7.78-2.47,9.34-6c1.56,3.53,5.15,6,9.33,6c4.18,0,7.78-2.47,9.34-6c1.56,3.53,5.16,6,9.34,6
			c4.18,0,7.77-2.47,9.33-6c1.56,3.53,5.15,6,9.33,6c4.18,0,7.78-2.47,9.34-6.01c1.56,3.53,5.15,6.01,9.34,6.01
			c4.19,0,7.79-2.47,9.34-6.01c1.62,3.65,5.42,6.14,9.73,5.98c0.01,0,0.01,0,0.01,0c4.99-0.2,9-3.9,9.66-8.58
			c3.22,3.54,8.66,4.42,12.92,1.86c4.26-2.57,5.91-7.7,4.14-12.09c4.56,1.55,9.75-0.27,12.19-4.53c2.45-4.27,1.33-9.55-2.41-12.54
			c4.76-0.83,8.36-4.9,8.36-9.79c0-3.52-1.87-6.61-4.69-8.38c2.82-1.77,4.69-4.86,4.69-8.38c0-4.09-2.53-7.6-6.14-9.13
			c3.61-1.52,6.14-5.04,6.14-9.13c0-4.09-2.53-7.6-6.14-9.12c3.61-1.52,6.14-5.04,6.14-9.13c0-4.09-2.52-7.6-6.13-9.12
			c3.61-1.53,6.13-5.04,6.13-9.13c0-4.09-2.53-7.6-6.13-9.13c3.61-1.53,6.13-5.04,6.13-9.13c0-4.09-2.53-7.6-6.14-9.12
			c3.61-1.52,6.14-5.04,6.14-9.13c0-4.09-2.53-7.6-6.14-9.12c3.61-1.53,6.14-5.04,6.14-9.13c0-4.09-2.53-7.6-6.13-9.13
			c3.61-1.53,6.13-5.04,6.13-9.13c0-4.08-2.52-7.6-6.13-9.12c3.61-1.53,6.13-5.04,6.13-9.13c0-4.87-3.58-8.92-8.32-9.77
			c3.76-2.97,4.92-8.25,2.48-12.53c0,0,0,0,0,0c-2.42-4.28-7.59-6.12-12.17-4.6C513.27,436.54,511.65,431.4,507.4,428.81"/>
	</g>
</g>
<g>
	<path fill="#FFFFFF" d="M213.69,482.18c-2.25,0-4.03-2.49-8.07-2.49c-2.02,0-4.15,0.36-6.05,0.95c-0.24,0.95-0.24,2.02-0.24,3.08
		c0,5.1-0.12,10.56,0.83,15.42c0.12,1.07,0.47,1.9,0.47,2.97c0,1.66-1.19,3.56-2.97,3.56c-2.14,0-3.08-2.73-3.08-4.51
		c0-0.83,0.36-1.54,0.36-2.37c0-5.81-0.24-11.87-0.36-17.8l-0.12,0.12c-14.71,3.8-28.95,5.22-44.02,5.46
		c0.47,4.75,0.12,10.08,0.12,14.95c0,2.02,0.83,10.92-2.02,10.92c-1.42,0-2.49-1.3-2.49-2.61c0-7.95,0.12-16.02-0.36-23.97
		c-7.95-0.71-22.9-4.03-22.9-14.47c0-3.32,2.49-8.78,6.29-8.78c1.42,0,2.73,1.19,2.73,2.61c0,2.49-4.15,1.9-4.15,6.17
		c0,6.64,13.05,9.85,17.92,10.44c0-11.51,0.24-25.63,2.85-36.9c0.36-1.54,1.07-2.61,2.85-2.61c1.9,0,2.14,2.25,2.14,3.68
		c0,0.95-0.12,1.9-0.24,2.97c-1.66,9.02-3.08,18.03-3.08,27.29c0,2.02,0,4.03,0.12,5.93h0.12c2.49,0.24,4.98,0.36,7.47,0.36
		c10.8,0,26.22-1.9,36.54-5.7c0.47-0.12,0.47-0.24,0.47-0.83c0.47-6.29,0.95-38.08,4.51-41.29c0.71-0.59,1.3-0.95,2.25-0.95
		c1.31,0,2.25,1.19,2.25,2.37c0,1.42-1.31,2.25-1.66,3.56c-1.66,4.27-2.61,30.02-2.73,36.31c2.61-0.48,5.34-0.95,7.95-0.95
		c2.61,0,8.9,0.59,8.9,4.27C216.3,480.76,215.23,482.18,213.69,482.18z"/>
	<path fill="#FFFFFF" d="M258.44,489.66c-0.71,7-7,16.02-14.95,16.02c-4.15,0-7.12-2.85-8.66-6.53c-2.49,4.75-7.12,9.73-12.81,9.73
		c-5.46,0-9.49-4.27-9.49-9.61c0-8.78,10.56-23.61,20.05-23.61c2.25,0,5.81,1.31,5.81,4.03c0,0.71-0.36,1.54-0.95,2.02
		c0.71,0.47,1.19,1.3,1.19,2.14c0,2.25-0.83,4.51-0.83,6.76c0,3.8,1.19,11.03,6.29,11.03c8.42,0,9.61-14.24,13.05-14.24
		c0.83,0,1.42,0.83,1.42,1.66L258.44,489.66z M231.39,480.16c-6.17,0-14.47,12.46-14.47,18.51c0,3.44,2.14,5.93,5.69,5.93
		c6.05,0,10.8-8.07,10.8-13.53c0-1.31-0.36-2.61-0.36-3.92c0-1.78,0.36-4.51,2.02-5.46C233.76,480.76,232.93,480.16,231.39,480.16z"
		/>
	<path fill="#FFFFFF" d="M296.88,490.84c-4.63,7.83-15.66,12.46-24.44,12.46c-4.27,0-8.78-0.95-12.58-2.85
		c-0.12,6.53,0,31.56-1.66,36.9c-0.47,1.42-1.19,2.61-2.85,2.61c-0.83,0-1.54-0.36-2.14-0.83c-4.75-4.39-6.05-14.36-6.05-20.41
		c0-8.42,1.78-17.44,5.46-25.15c0.83-1.78,2.02-3.32,2.85-4.98c0.36-0.59,0.24-2.02,0.24-2.61c0-2.25-0.12-4.51-0.24-6.88
		c-0.12-2.37-1.07-4.98-1.07-7.24c0-1.3,0.95-3.08,2.49-3.08c2.85,0,2.73,11.75,2.73,13.76c4.03-3.68,9.49-6.76,15.07-6.76
		c7.59,0,12.1,5.58,12.1,12.81c0,2.97-0.71,6.17-2.61,8.42c3.92-1.9,6.53-4.86,9.61-7.83c0.48-0.47,0.95-0.83,1.66-0.83
		c0.83,0,1.66,0.83,1.66,1.66C297.12,490.25,297,490.6,296.88,490.84z M255.59,497.25c-2.37,0-4.51,16.73-4.51,19.46
		c0,4.15,0.59,13.76,4.03,16.37c1.19-4.51,1.19-27.88,1.19-34.17C256.3,498.67,255.83,497.25,255.59,497.25z M273.27,480.28
		c-4.86,0-13.52,4.75-13.52,10.08c0,1.42-0.24,4.27,0.71,5.22c2.73,2.37,6.29,3.44,9.85,3.44c4.86,0,11.86-1.42,11.86-7.59
		C282.17,485.98,279.32,480.28,273.27,480.28z"/>
	<path fill="#FFFFFF" d="M336.03,490.84c-4.63,7.83-15.66,12.46-24.44,12.46c-4.27,0-8.78-0.95-12.58-2.85
		c-0.12,6.53,0,31.56-1.66,36.9c-0.47,1.42-1.19,2.61-2.85,2.61c-0.83,0-1.54-0.36-2.14-0.83c-4.75-4.39-6.05-14.36-6.05-20.41
		c0-8.42,1.78-17.44,5.46-25.15c0.83-1.78,2.02-3.32,2.85-4.98c0.36-0.59,0.24-2.02,0.24-2.61c0-2.25-0.12-4.51-0.24-6.88
		s-1.07-4.98-1.07-7.24c0-1.3,0.95-3.08,2.49-3.08c2.85,0,2.73,11.75,2.73,13.76c4.03-3.68,9.49-6.76,15.07-6.76
		c7.59,0,12.1,5.58,12.1,12.81c0,2.97-0.71,6.17-2.61,8.42c3.92-1.9,6.53-4.86,9.61-7.83c0.47-0.47,0.95-0.83,1.66-0.83
		c0.83,0,1.66,0.83,1.66,1.66C336.27,490.25,336.15,490.6,336.03,490.84z M294.74,497.25c-2.37,0-4.51,16.73-4.51,19.46
		c0,4.15,0.59,13.76,4.03,16.37c1.19-4.51,1.19-27.88,1.19-34.17C295.45,498.67,294.98,497.25,294.74,497.25z M312.42,480.28
		c-4.86,0-13.53,4.75-13.53,10.08c0,1.42-0.24,4.27,0.71,5.22c2.73,2.37,6.29,3.44,9.85,3.44c4.86,0,11.86-1.42,11.86-7.59
		C321.32,485.98,318.47,480.28,312.42,480.28z"/>
	<path fill="#FFFFFF" d="M358.69,506.62c2.49,7.47,4.98,16.37,4.98,24.2c0,11.75-6.29,16.49-17.56,16.49
		c-8.66,0-18.04-3.44-18.04-13.64c0-12.7,15.9-22.54,25.15-28.24c-0.24-1.42-0.83-3.56-1.19-4.98c-3.68,3.2-9.37,7-14.47,7
		c-4.15,0-7.47-2.85-7.47-7.12c0-4.03,4.98-19.58,9.73-19.58c0.95,0,1.66,0.59,1.66,1.54c0,1.07-0.71,2.02-1.54,2.49
		c-2.49,3.8-5.46,9.49-5.46,14.12c0,3.08,1.66,4.27,4.63,4.27c4.75,0,9.73-3.92,12.34-7.59c-0.12-0.83-0.12-1.66-0.12-2.49
		c0-3.08,1.42-14.24,5.81-14.24c1.9,0,2.14,2.97,2.14,4.27c0,5.1-3.09,10.32-3.09,12.81c0,2.37,0.83,4.51,1.31,6.76
		c5.58-3.2,12.69-8.31,16.13-13.76c0.48-0.71,0.83-1.3,1.78-1.3c1.07,0,1.54,0.95,1.54,1.9
		C376.96,494.52,362.49,503.3,358.69,506.62z M354.54,508.88c-8.3,4.51-21.83,14-21.83,24.68c0,8.19,8.3,10.08,14.95,10.08
		c8.07,0,11.98-3.2,11.98-11.51C359.64,524.77,356.91,515.76,354.54,508.88z"/>
	<path fill="#FFFFFF" d="M394.4,462.01c-1.07,10.08-1.9,20.17-1.9,30.25c0,2.73,0.12,11.03,1.42,12.93
		c0.59,0.83,1.31,1.42,1.31,2.49c0,1.42-1.19,2.61-2.49,2.61c-5.22,0-4.86-13.41-4.86-16.61c0-13.76,1.42-27.64,2.49-41.41
		c-1.07,1.3-2.49,4.98-4.39,4.98c-1.42,0-2.37-1.42-2.37-2.73c0-1.9,7.83-10.68,9.73-10.68s2.49,1.66,2.49,3.32
		C395.82,451.93,394.87,457.27,394.4,462.01z"/>
	<path fill="#FFFFFF" d="M420.86,503.54c-2.61,3.44-5.46,5.34-9.97,5.34c-2.85,0-8.9-1.66-8.9-5.22c0-0.95,0.59-1.78,1.54-1.78
		c0.83,0,3.44,1.9,6.53,1.9c3.68,0,8.3-1.42,8.3-5.69c0-4.75-7.12-10.08-10.56-12.93c-0.71,1.42-3.09,6.88-4.75,6.88
		c-0.95,0-1.3-0.95-1.3-1.78c0-1.31,2.61-6.53,3.32-8.19c-0.71-1.3-0.95-2.73-0.95-4.15c0-2.85,2.37-9.61,5.81-9.61
		c1.66,0,2.02,1.66,2.02,2.97c0,2.85-1.19,6.76-2.25,9.37c4.15,3.92,12.93,10.8,12.46,17.2c3.09-2.61,5.46-6.05,7.47-9.49
		c0.36-0.59,0.71-1.19,1.42-1.19c0.71,0,1.19,0.48,1.19,1.19C432.25,494.88,424.18,498.91,420.86,503.54z"/>
	<path fill="#FFFFFF" d="M456.09,491.08c-3.2,5.58-10.44,13.64-17.32,13.64c-9.85,0-10.92-13.29-10.92-20.53
		c0-4.75,0.47-9.61,1.31-14.24c-1.66-0.12-7.47,0.24-7.47-2.14c0-2.85,6.41-2.02,8.3-1.9c1.07-4.03,4.75-14.95,9.85-14.95
		c3.92,0,4.27,6.64,4.27,9.49c0,1.9-0.12,3.8-0.48,5.58c2.73,0.12,5.81,0.12,8.54,0.59c0.83,0.12,1.42,0.59,1.42,1.54
		c0,0.95-0.71,1.66-1.66,1.66h-9.25c-2.37,7.24-6.05,13.17-9.49,19.81c-0.12,0.36-0.24,0.59-0.24,0.95c0,3.44,2.97,9.25,7,9.25
		c7.59,0,12.46-11.98,14.95-11.98c1.07,0,1.54,1.07,1.54,2.02C456.45,490.25,456.33,490.72,456.09,491.08z M433.08,469.96
		c-0.71,3.68-1.31,7.36-1.31,11.03c0,1.07,0,2.25,0.12,3.32c2.61-4.51,4.51-9.37,6.17-14.36H433.08z M439.01,456.32
		c-2.02,1.9-4.03,6.76-4.86,9.49l5.1,0.12c0.47-1.54,0.71-3.2,0.71-4.75C439.96,459.88,439.72,457.27,439.01,456.32z"/>
	<path fill="#FFFFFF" d="M206.75,567.51c7,2.02,11.51,7.83,11.51,15.19c0,13.76-15.9,22.78-28.24,22.78
		c-4.51,0-18.27-3.32-18.27-8.66c0-1.9,1.9-2.61,3.44-2.61c2.49,0,3.92,0.47,4.75,2.97c1.19,3.56,7.71,4.51,11.03,4.51
		c9.97,0,22.31-7.36,22.31-18.39c0-7.83-5.93-12.58-13.41-13.05l-0.59,0.12c-9.14,2.61-18.75,6.53-28.24,7.24
		c-0.12,1.31-0.12,2.73-0.12,4.03c0,6.88,0.95,13.64,0.95,20.53c0,1.42-0.71,3.56-2.49,3.56c-1.54,0-2.02-1.78-2.25-2.97
		c-1.54-6.76-1.19-18.39-1.19-25.51c-1.54-0.47-2.97-1.66-2.97-3.32c0-2.14,1.9-3.68,3.68-4.51l1.66-17.56
		c0.24-2.49,0.24-5.58,0.83-7.95c0.36-1.07,0.71-2.37,2.14-2.37c1.19,0,1.66,1.19,1.66,2.13c0,8.07-0.83,16.14-1.42,24.2
		c6.29-1.9,13.41-2.25,20.05-2.25c2.97,0,6.05,0,8.9,0.59c6.76-2.85,23.85-9.97,23.85-18.63c0-9.49-19.1-10.68-25.86-10.68
		c-12.58,0-49.12,5.46-58.02,13.64c-0.71,1.9,0.59,4.63-2.97,4.63c-2.25,0-4.75-1.19-4.75-3.8c0-2.25,2.02-3.92,3.92-4.86
		c16.97-8.42,41.76-13.17,60.63-13.17c9.14,0,32.15,0.83,32.15,13.76C229.41,556.71,214.34,564.43,206.75,567.51z M186.46,570.12
		c-3.32,0-12.93,0.83-15.19,3.32c0.12,0.36,0.71,0.24,0.95,0.24c2.85,0,13.64-2.25,16.25-3.44
		C187.76,570.12,187.17,570.12,186.46,570.12z"/>
	<path fill="#FFFFFF" d="M249.12,585.31c-2.49,6.41-9.37,15.66-16.97,15.66c-5.81,0-7-5.34-7-10.08c0-3.32,0.83-14.83,3.2-16.61
		c0.47-0.36,0.95-0.59,1.54-0.59c1.19,0,1.9,0.95,1.9,2.14c0,3.2-2.25,9.61-2.25,14.71c0,2.73,0.36,6.29,3.92,6.29
		c5.1,0,10.56-9.25,12.81-13.05c0.36-0.71,0.83-1.19,1.66-1.19s1.54,0.71,1.54,1.54C249.47,584.48,249.35,584.95,249.12,585.31z
		 M231.32,568.34c-1.54,0-2.97-0.95-2.97-2.61c0-2.85,1.66-7.48,5.22-7.48c2.14,0,3.08,2.14,3.08,4.03
		C236.66,565.26,234.4,568.34,231.32,568.34z"/>
	<path fill="#FFFFFF" d="M252.2,581.27c2.02,0,7.24-3.92,7.71-5.93c0.36-1.66,1.54-3.8,3.44-3.8c1.19,0,1.9,1.42,1.9,2.49
		c0,1.07-0.59,2.14-1.31,2.85c-1.78,1.9-2.73,9.25-2.73,11.98c0,3.32,0.71,7.36,4.86,7.36c8.3,0,10.56-12.93,13.53-12.93
		c0.83,0,1.42,0.71,1.42,1.42v0.59c-1.9,7-8.66,15.54-16.49,15.54c-6.05,0-7.36-5.1-7.36-10.08c0-2.85,0.36-5.58,0.83-8.42
		c-3.08,2.02-4.86,3.08-8.54,2.85c-0.59,0.36-1.31,0.83-2.02,0.83s-1.31-0.59-1.31-1.3c0-0.47,0.24-0.83,0.36-1.19
		c-0.47-0.95-0.59-2.02-0.59-2.97c0-2.85,2.73-13.17,6.41-13.17c1.19,0,1.9,1.31,1.9,2.37c0,2.97-2.85,11.27-2.73,11.51H252.2z"/>
	<path fill="#FFFFFF" d="M305,585.66c-3.2,5.58-10.44,13.64-17.32,13.64c-9.85,0-10.92-13.29-10.92-20.53
		c0-4.75,0.47-9.61,1.31-14.24c-1.66-0.12-7.47,0.24-7.47-2.14c0-2.85,6.41-2.02,8.3-1.9c1.07-4.03,4.75-14.95,9.85-14.95
		c3.92,0,4.27,6.64,4.27,9.49c0,1.9-0.12,3.8-0.47,5.58c2.73,0.12,5.81,0.12,8.54,0.59c0.83,0.12,1.42,0.59,1.42,1.54
		c0,0.95-0.71,1.66-1.66,1.66h-9.25c-2.37,7.24-6.05,13.17-9.49,19.81c-0.12,0.36-0.24,0.59-0.24,0.95c0,3.44,2.97,9.25,7,9.25
		c7.59,0,12.46-11.98,14.95-11.98c1.07,0,1.54,1.07,1.54,2.02C305.35,584.83,305.23,585.31,305,585.66z M281.98,564.54
		c-0.71,3.68-1.31,7.36-1.31,11.03c0,1.07,0,2.25,0.12,3.32c2.61-4.51,4.51-9.37,6.17-14.36H281.98z M287.91,550.9
		c-2.02,1.9-4.03,6.76-4.86,9.49l5.1,0.12c0.47-1.54,0.71-3.2,0.71-4.75C288.86,554.46,288.62,551.85,287.91,550.9z"/>
	<path fill="#FFFFFF" d="M306.3,586.73c1.9-3.32,6.41-10.44,10.68-10.44c8.9,0,3.8,17.44,11.03,17.44c7.36,0,8.78-10.92,11.27-10.92
		c1.42,0,1.66,1.3,1.66,2.37c0,4.63-8.19,12.81-13.53,12.81c-10.8,0-7.35-17.2-10.91-17.2c-5.22,0-10.32,17.44-11.15,21.59
		c-0.36,1.78-0.83,4.03-3.08,4.03c-1.19,0-1.9-0.95-1.9-2.02v-0.71c1.07-5.34,1.19-10.2,1.31-15.54
		c0.12-12.93,2.37-43.42,12.7-52.68c1.19-0.95,2.61-1.54,4.03-1.54c4.39,0,4.86,5.1,4.86,8.42c0,13.29-8.42,28.47-16.97,38.2V586.73
		z M306.18,574.63c6.53-8.07,13.05-19.93,13.05-30.61c0-0.83-0.36-5.81-1.42-5.81c-0.71,0-1.78,1.3-2.14,1.78
		C310.45,547.1,307.01,565.97,306.18,574.63z"/>
	<path fill="#FFFFFF" d="M380.81,585.07c-1.78,5.81-6.53,14.47-13.53,14.47c-4.75,0-8.66-3.92-10.56-7.95
		c-2.85,4.27-8.31,9.97-13.76,9.97c-5.22,0-6.76-5.22-6.76-9.49c0-7.95,6.17-24.8,15.78-24.8c0.83,0,1.66,0.12,2.49,0.36
		c0.36-5.46,3.32-24.68,10.32-24.68c4.39,0,4.87,7.36,4.87,10.44c0,10.56-4.98,23.37-9.49,32.75c0.95,3.32,3.2,9.02,7.47,9.02
		c7.24,0,8.78-12.46,11.63-12.46c0.95,0,1.54,0.83,1.54,1.78V585.07z M355.3,587.09c-1.07-4.51-1.19-8.66-1.19-13.29
		c0-1.42-1.66-2.37-2.97-2.37c-5.46,0-10.68,14.47-10.68,19.34c0,2.49,0.83,6.53,4.03,6.53C348.54,597.29,353.4,590.05,355.3,587.09
		z M365.39,554.93c0-1.78-0.24-5.1-1.19-6.53c-4.15,5.46-5.58,18.63-5.58,25.39c0,2.14,0.12,4.15,0.36,6.29
		C362.06,572.73,365.39,562.88,365.39,554.93z"/>
	<path fill="#FFFFFF" d="M420.91,584.24c-0.71,7-7,16.02-14.95,16.02c-4.15,0-7.12-2.85-8.66-6.53c-2.49,4.75-7.12,9.73-12.81,9.73
		c-5.46,0-9.49-4.27-9.49-9.61c0-8.78,10.56-23.61,20.05-23.61c2.25,0,5.81,1.3,5.81,4.03c0,0.71-0.36,1.54-0.95,2.02
		c0.71,0.47,1.19,1.3,1.19,2.14c0,2.25-0.83,4.51-0.83,6.76c0,3.8,1.19,11.03,6.29,11.03c8.42,0,9.61-14.24,13.05-14.24
		c0.83,0,1.42,0.83,1.42,1.66L420.91,584.24z M393.86,574.75c-6.17,0-14.47,12.46-14.47,18.51c0,3.44,2.14,5.93,5.69,5.93
		c6.05,0,10.8-8.07,10.8-13.53c0-1.31-0.36-2.61-0.36-3.92c0-1.78,0.36-4.51,2.02-5.46C396.23,575.34,395.4,574.75,393.86,574.75z"
		/>
	<path fill="#FFFFFF" d="M442.86,601.21c2.49,7.47,4.98,16.37,4.98,24.2c0,11.75-6.29,16.49-17.56,16.49
		c-8.66,0-18.03-3.44-18.03-13.64c0-12.7,15.9-22.54,25.15-28.24c-0.24-1.42-0.83-3.56-1.19-4.98c-3.68,3.2-9.37,7-14.47,7
		c-4.15,0-7.47-2.85-7.47-7.12c0-4.03,4.98-19.58,9.73-19.58c0.95,0,1.66,0.59,1.66,1.54c0,1.07-0.71,2.02-1.54,2.49
		c-2.49,3.8-5.46,9.49-5.46,14.12c0,3.08,1.66,4.27,4.63,4.27c4.75,0,9.73-3.92,12.34-7.59c-0.12-0.83-0.12-1.66-0.12-2.49
		c0-3.08,1.42-14.24,5.81-14.24c1.9,0,2.14,2.97,2.14,4.27c0,5.1-3.08,10.32-3.08,12.81c0,2.37,0.83,4.51,1.3,6.76
		c5.58-3.2,12.69-8.31,16.14-13.76c0.47-0.71,0.83-1.31,1.78-1.31c1.07,0,1.54,0.95,1.54,1.9
		C461.13,589.1,446.66,597.88,442.86,601.21z M438.71,603.46c-8.31,4.51-21.83,14-21.83,24.68c0,8.19,8.31,10.08,14.95,10.08
		c8.07,0,11.98-3.2,11.98-11.51C443.81,619.36,441.08,610.34,438.71,603.46z"/>
</g>
<g>
	<g>
		<path fill="#603913" d="M227.13,618.37v0.57c-1.45,0.31-1.61,0.88-2.1,2.05l-3.25,7.66v5.87c0,0.78,0.26,0.99,2.13,1.14v0.57
			h-6.13v-0.57c1.92-0.16,2.18-0.36,2.18-1.14v-5.56l-3.69-8.54c-0.42-0.99-0.83-1.33-1.71-1.48v-0.57h5.48v0.57
			c-1.48,0.13-1.9,0.39-1.9,1.09c0,0.54,0.6,1.69,3.17,7.82h0.05c2.65-6.34,3.12-7.04,3.12-7.82c0-0.68-0.26-0.94-1.51-1.09v-0.57
			H227.13z"/>
	</g>
	<g>
		<path fill="#603913" d="M234.07,630.03c0,3.66-1.97,6.52-4.67,6.52s-4.67-2.86-4.67-6.52c0-3.66,1.97-6.52,4.67-6.52
			S234.07,626.37,234.07,630.03z M226.54,630.03c0,4.03,1.09,5.84,2.86,5.84s2.86-1.82,2.86-5.84s-1.09-5.84-2.86-5.84
			S226.54,626.01,226.54,630.03z"/>
		<path fill="#603913" d="M243.94,623.82v10.6c0,1.07,0.23,1.19,1.74,1.25v0.57l-3.3,0.1v-2.03h-0.05
			c-0.73,1.27-1.61,2.23-3.32,2.23c-1.77,0-3.01-1.01-3.01-3.9v-6.91c0-1.06-0.23-1.19-1.66-1.25v-0.57l3.27-0.1v9.71
			c0,1.45,0.78,2.18,1.82,2.18c1.71,0,2.96-2.23,2.91-4.26v-5.71c0-1.06-0.23-1.19-1.64-1.25v-0.57L243.94,623.82z"/>
		<path fill="#603913" d="M245.86,623.93l3.17-0.1v2.83h0.05c0.36-0.96,1.06-3.14,2.78-3.14c1.14,0,1.64,0.96,1.64,2
			c0,0.86-0.36,1.45-0.99,1.45s-0.99-0.49-0.99-1.14c0-0.62,0.39-1.14,0.99-1.14c-0.13-0.31-0.29-0.49-0.73-0.49
			c-1.38,0-2.65,2.99-2.65,6.31v3.92c0,0.88,0.44,1.14,1.79,1.25v0.57h-5.01v-0.57c1.17-0.1,1.61-0.36,1.61-1.25v-8.67
			c0-1.06-0.23-1.19-1.66-1.25V623.93z"/>
		<path fill="#603913" d="M258.01,636.24v-0.57c1.35-0.16,1.87-0.62,1.87-1.71v-13.87c0-0.78-0.26-0.99-1.87-1.14v-0.57h4.16
			l4.03,14.49h0.05l4.13-14.49h4v0.57c-1.61,0.16-1.87,0.36-1.87,1.14v14.44c0,0.78,0.26,0.99,1.87,1.14v0.57h-5.56v-0.57
			c1.61-0.16,1.87-0.36,1.87-1.14v-14.8h-0.05l-4.57,16.52h-0.68l-4.62-16.52h-0.05v14.23c0,1.09,0.52,1.56,1.97,1.71v0.57H258.01z"
			/>
		<path fill="#603913" d="M277.15,629.69c0,4.39,1.14,6.18,3.06,6.18c2.44,0,3.12-2.29,3.38-4.1l0.68,0.1
			c-0.34,2.31-1.22,4.67-4.08,4.67c-2.94,0-5.01-2.91-5.01-6.57c0-3.06,1.4-6.47,4.6-6.47c3.19,0,4.6,3.4,4.6,6.18H277.15z
			 M282.4,629.02c0-2.8-0.78-4.83-2.62-4.83c-1.84,0-2.62,2.03-2.62,4.83H282.4z"/>
		<path fill="#603913" d="M285.88,631.62c0.29,1.61,0.88,4.26,2.99,4.26c1.66,0,2.34-1.19,2.34-2.6c0-3.35-5.82-2.1-5.82-6.44
			c0-1.74,1.38-3.32,3.12-3.32c0.86,0,1.45,0.26,2.05,0.65c0.31,0.21,0.34,0.29,0.44,0.29c0.05,0,0.1-0.05,0.21-0.23l0.23-0.39h0.52
			v4h-0.57c-0.23-2.8-1.58-3.64-2.83-3.64c-1.14,0-1.87,1.01-1.87,2.08c0,3.66,6.03,1.95,6.03,6.57c0,2.13-1.77,3.71-3.77,3.71
			c-0.83,0-1.53-0.36-1.97-0.68c-0.34-0.21-0.47-0.36-0.62-0.36c-0.21,0-0.39,0.39-0.52,0.73h-0.57v-4.62H285.88z"/>
		<path fill="#603913" d="M293.93,631.62c0.29,1.61,0.88,4.26,2.99,4.26c1.66,0,2.34-1.19,2.34-2.6c0-3.35-5.82-2.1-5.82-6.44
			c0-1.74,1.38-3.32,3.12-3.32c0.86,0,1.45,0.26,2.05,0.65c0.31,0.21,0.34,0.29,0.44,0.29c0.05,0,0.1-0.05,0.21-0.23l0.23-0.39H300
			v4h-0.57c-0.23-2.8-1.58-3.64-2.83-3.64c-1.14,0-1.87,1.01-1.87,2.08c0,3.66,6.03,1.95,6.03,6.57c0,2.13-1.77,3.71-3.77,3.71
			c-0.83,0-1.53-0.36-1.97-0.68c-0.34-0.21-0.47-0.36-0.62-0.36c-0.21,0-0.39,0.39-0.52,0.73h-0.57v-4.62H293.93z"/>
		<path fill="#603913" d="M307.56,626.6c0-1.35-0.47-2.52-2.47-2.52c-1.3,0-2.23,0.7-2.31,1.38c0.78,0.05,1.09,0.42,1.09,1.19
			c0,0.75-0.42,1.25-1.07,1.25c-0.62,0-1.06-0.49-1.06-1.4c0-2.02,1.89-2.99,3.56-2.99c2.86,0,3.87,1.45,3.87,4.05v7.12
			c0,0.6,0.16,0.83,0.47,0.83c0.52,0,0.83-0.31,0.83-2.34v-0.39h0.57v0.62c0,2.13-0.57,3.04-1.76,3.04c-0.94,0-1.56-0.62-1.66-2.23
			h-0.05c-0.49,1.04-1.58,2.34-3.12,2.34c-2.03,0-3.01-1.17-3.01-3.04c0-3.17,3.58-4.13,6.13-4.96V626.6z M307.56,629.23
			c-2.55,0.73-4.52,1.69-4.52,4.39c0,1.09,0.49,2,1.66,2c1.58,0,2.86-2.03,2.86-4.16V629.23z"/>
		<path fill="#603913" d="M313.38,634.65c-0.62-0.29-1.33-0.73-1.33-1.56c0-0.8,0.83-1.58,1.46-1.9c-1.12-0.78-1.71-2.08-1.71-3.53
			c0-2.28,1.56-4.15,3.79-4.15c0.7,0,1.27,0.16,1.71,0.36c0.1-1.12,0.7-1.87,1.69-1.87c1.09,0,1.43,0.96,1.43,1.38
			c0,0.68-0.41,1.07-0.88,1.07c-0.6,0-0.93-0.39-0.93-1.01c0-0.21,0.08-0.39,0.16-0.6c-0.54,0-0.78,0.54-0.78,1.45
			c0.86,0.73,1.56,1.92,1.56,3.38c0,2.18-1.61,4.16-4,4.16c-0.62,0-1.27-0.16-1.58-0.34c-0.34,0.26-0.75,0.62-0.75,1.01
			c0,2,7.38-0.23,7.38,4.42c0,2.96-2.96,4.31-5.12,4.31c-2.47,0-4.88-1.33-4.88-3.53c0-1.77,1.35-2.57,2.8-2.99V634.65z
			 M315.69,640.39c1.61,0,3.53-1.04,3.53-2.83c0-1.45-0.93-2.47-3.92-2.47c-2.47,0-3.38,1.19-3.38,2.49
			C311.92,639.36,313.66,640.39,315.69,640.39z M313.4,627.67c0,2.39,0.88,3.48,2.16,3.48c1.27,0,2.16-1.09,2.16-3.48
			c0-2.39-0.88-3.48-2.16-3.48C314.29,624.19,313.4,625.28,313.4,627.67z"/>
		<path fill="#603913" d="M322.7,629.69c0,4.39,1.14,6.18,3.06,6.18c2.44,0,3.12-2.29,3.38-4.1l0.67,0.1
			c-0.34,2.31-1.22,4.67-4.08,4.67c-2.93,0-5.01-2.91-5.01-6.57c0-3.06,1.4-6.47,4.6-6.47c3.2,0,4.6,3.4,4.6,6.18H322.7z
			 M327.95,629.02c0-2.8-0.78-4.83-2.62-4.83s-2.62,2.03-2.62,4.83H327.95z"/>
		<path fill="#603913" d="M345.35,627.3h-6.39v7.22c0,0.78,0.26,0.99,1.87,1.14v0.57h-5.56v-0.57c1.61-0.16,1.87-0.36,1.87-1.14
			v-14.44c0-0.78-0.26-0.99-1.87-1.14v-0.57h5.56v0.57c-1.61,0.16-1.87,0.36-1.87,1.14v6.39h6.39v-6.39c0-0.78-0.26-0.99-1.87-1.14
			v-0.57h5.56v0.57c-1.61,0.16-1.87,0.36-1.87,1.14v14.44c0,0.78,0.26,0.99,1.87,1.14v0.57h-5.56v-0.57
			c1.61-0.16,1.87-0.36,1.87-1.14V627.3z"/>
		<path fill="#603913" d="M352.15,629.69c0,4.39,1.14,6.18,3.06,6.18c2.44,0,3.12-2.29,3.38-4.1l0.67,0.1
			c-0.34,2.31-1.22,4.67-4.08,4.67c-2.93,0-5.01-2.91-5.01-6.57c0-3.06,1.4-6.47,4.6-6.47c3.2,0,4.6,3.4,4.6,6.18H352.15z
			 M357.39,629.02c0-2.8-0.78-4.83-2.62-4.83s-2.62,2.03-2.62,4.83H357.39z"/>
	</g>
	<g>
		<path fill="#603913" d="M359.81,623.93l3.17-0.1v2.83h0.05c0.36-0.96,1.06-3.14,2.78-3.14c1.14,0,1.64,0.96,1.64,2
			c0,0.86-0.37,1.45-0.99,1.45c-0.62,0-0.99-0.49-0.99-1.14c0-0.62,0.39-1.14,0.99-1.14c-0.13-0.31-0.29-0.49-0.73-0.49
			c-1.38,0-2.65,2.99-2.65,6.31v3.92c0,0.88,0.44,1.14,1.79,1.25v0.57h-5.01v-0.57c1.17-0.1,1.61-0.36,1.61-1.25v-8.67
			c0-1.06-0.23-1.19-1.66-1.25V623.93z"/>
	</g>
	<g>
		<path fill="#603913" d="M369.24,629.69c0,4.39,1.14,6.18,3.06,6.18c2.44,0,3.12-2.29,3.38-4.1l0.67,0.1
			c-0.34,2.31-1.22,4.67-4.08,4.67c-2.93,0-5.01-2.91-5.01-6.57c0-3.06,1.4-6.47,4.6-6.47c3.2,0,4.6,3.4,4.6,6.18H369.24z
			 M374.49,629.02c0-2.8-0.78-4.83-2.62-4.83s-2.62,2.03-2.62,4.83H374.49z"/>
	</g>
</g>
<circle fill="#FEBC11" cx="108.83" cy="589.92" r="13.07"/>
<circle fill="#C8D52C" cx="110.7" cy="454.54" r="6.14"/>
<circle fill="#FEBC11" cx="279.69" cy="458.27" r="9.34"/>
<circle fill="#C8D52C" cx="497.23" cy="560.97" r="15.87"/>
<circle fill="#FEBC11" cx="494.43" cy="474.14" r="6.54"/>
<circle fill="#FEBC11" cx="481.36" cy="637.53" r="13.07"/>
<circle fill="#C8D52C" cx="182.59" cy="636.6" r="8.4"/>
<circle fill="#C8D52C" cx="465.49" cy="524.56" r="7.47"/>
<circle fill="#C8D52C" cx="354.39" cy="445.2" r="6.54"/>
<circle fill="#FEBC11" cx="168.59" cy="521.76" r="5.6"/>
<circle fill="#FEBC11" cx="97.63" cy="643.13" r="5.6"/>
<circle fill="#C8D52C" cx="92.03" cy="518.02" r="10.27"/>
<g>
	<g>
		<g>
			<path fill="#F9C2CD" d="M424.62,272.44c-2.35,18.04,4.27,24.39,4.27,24.39c16.38,6.86,31.09,4.05,31.09,4.05
				c7.96-6.13,10.54-21.85,10.54-21.85L424.62,272.44z"/>
			<path fill="#EFD9A4" d="M416.26,270.11c0.51-2.87,1.98-5.9,3.08-7.55c2.35-3.53,5.59-6.8,9.12-9.17
				c4.57-3.07,10.34-4.32,15.79-3.77c1.08,0.11,2.18,0.45,3.25,0.53c34.31,2.46,29.86,28.98,29.86,28.98
				c-2.47,6.55-11.97-0.56-11.97-0.56c-5.49,5.28-12.34-1.61-12.34-1.61c-7.15,5.86-13.33-1.73-13.33-1.73
				c-7.21,5.79-13.56-1.77-13.56-1.77c-2.1,1.62-5.48,3.24-8.63,1.07C416.01,273.49,415.88,272.29,416.26,270.11z"/>
			<g>
				<g>
					<path fill="#F6A5BA" d="M434.26,282.01c0.39,4.31,0.78,8.63,1.17,12.94c0.07,0.82,1.36,0.85,1.29,0.02
						c-0.39-4.31-0.78-8.63-1.17-12.94C435.47,281.21,434.18,281.18,434.26,282.01L434.26,282.01z"/>
				</g>
			</g>
			<g>
				<g>
					<path fill="#F6A5BA" d="M440.81,282.06c0.01,4.33,0.01,8.66,0.01,12.99c0,0.82,1.28,0.97,1.28,0.14
						c-0.01-4.33-0.01-8.66-0.01-12.99C442.09,281.37,440.81,281.22,440.81,282.06L440.81,282.06z"/>
				</g>
			</g>
			<g>
				<g>
					<path fill="#F6A5BA" d="M427.69,280.89c0.79,4.39,1.59,8.79,2.38,13.18c0.15,0.82,1.39,0.49,1.25-0.32
						c-0.79-4.39-1.59-8.79-2.38-13.18C428.79,279.75,427.54,280.08,427.69,280.89L427.69,280.89z"/>
				</g>
			</g>
			<g>
				<g>
					<path fill="#F6A5BA" d="M459.11,284.58c-1.71,4.26-3.41,8.52-5.12,12.78c-0.31,0.77,0.93,1.13,1.24,0.36
						c1.71-4.26,3.41-8.52,5.12-12.78C460.65,284.17,459.41,283.81,459.11,284.58L459.11,284.58z"/>
				</g>
			</g>
			<g>
				<g>
					<g>
						<path fill="#F6A5BA" d="M464.79,285.23c-1.73,4.01-3.46,8.02-5.19,12.02c-0.33,0.76,0.91,1.11,1.24,0.36
							c1.73-4.01,3.46-8.02,5.19-12.02C466.36,284.83,465.12,284.48,464.79,285.23L464.79,285.23z"/>
					</g>
				</g>
			</g>
			
				<linearGradient id="SVGID_6_" gradientUnits="userSpaceOnUse" x1="430.1816" y1="176.6763" x2="435.8577" y2="184.5597" gradientTransform="matrix(0.9917 0.1291 -0.1291 0.9917 16.8843 27.4248)">
				<stop  offset="0" style="stop-color:#FFFFFF"/>
				<stop  offset="0.2647" style="stop-color:#FEFEFC"/>
				<stop  offset="0.4619" style="stop-color:#FDFAF2"/>
				<stop  offset="0.6374" style="stop-color:#FAF3E2"/>
				<stop  offset="0.8" style="stop-color:#F6EACC"/>
				<stop  offset="0.9526" style="stop-color:#F1DDAF"/>
				<stop  offset="1" style="stop-color:#EFD9A4"/>
			</linearGradient>
			<path fill="url(#SVGID_6_)" d="M425.98,261.96c-4.84-0.62-7.76,4.21-8.37,8.87c-0.29,2.26,0.49,4.18,3.24,3.68
				c2.25-0.41,3.49-2.54,5.5-3.39c-0.03,4.96,5.65,6.74,8.46,2.61c2.79-4.11,2.67-7.15-1.35-10.24c-1.24-0.96-3.32-1.4-4.93-1.19
				L425.98,261.96z"/>
			
				<linearGradient id="SVGID_7_" gradientUnits="userSpaceOnUse" x1="-227.3477" y1="81.625" x2="-221.6498" y2="89.5387" gradientTransform="matrix(-0.912 -0.4103 -0.4103 0.912 305.9023 98.6416)">
				<stop  offset="0" style="stop-color:#FFFFFF"/>
				<stop  offset="1" style="stop-color:#EFD9A4"/>
			</linearGradient>
			<path fill="url(#SVGID_7_)" d="M472.11,264.5c4.44,2.01,5.36,11.46,3.43,15.74c-0.93,2.08-2.85,1.24-4.92-0.63
				c-1.7-1.53-1.64-3.99-2.9-5.77c-2.57,4.24-8.35,2.78-8.57-2.21c-0.22-4.96,1.48-7.49,6.52-8.01c1.56-0.16,3.06-1.57,4.31-0.54
				L472.11,264.5z"/>
			<path fill="#6F392A" d="M424.1,252.62c-13.64,6.12-5.23,18.93,5.48,11.33c-3.62,12.8,10.63,13.59,18.68,7.93
				c0.77-0.54,4.12,3.74,6.36,3.4c2.68-0.41,1.77-3.22,2.63-2.69c4.11,2.53,4.73,2.69,7.13,3.68c5.02,2.06,11.19,2.19,7.64-6.15
				c3.22,1.58,4.61,2.75,6.7,0.56c5.76-8.14-16.06-21.32-24.34-23.08C440.65,244.67,433.33,249.63,424.1,252.62"/>
			
				<linearGradient id="SVGID_8_" gradientUnits="userSpaceOnUse" x1="415.8887" y1="139.0513" x2="439.9285" y2="158.7914" gradientTransform="matrix(0.9817 0.1903 -0.1903 0.9817 45.6724 22.7764)">
				<stop  offset="0" style="stop-color:#FFFFFF"/>
				<stop  offset="0.4773" style="stop-color:#B69A92"/>
				<stop  offset="0.8355" style="stop-color:#835447"/>
				<stop  offset="1" style="stop-color:#6F392A"/>
			</linearGradient>
			<path fill="url(#SVGID_8_)" d="M465.42,254.28c-1-0.67-2.01-1.26-2.56-1.63c-2.21-1.5-4.6-2.74-7.16-3.53
				c-5.41-1.67-10.88-0.78-16.28,0.4c-5.49,1.2-11.83,2.78-16.63,5.97c-2.15,1.42-4,4.03-1.53,6.16c1.11,0.96,2.82,0.8,4.2,0.76
				c1.57-0.05,6.07-2.44,7.09-0.91c1.3,1.98-0.67,5.17-0.91,7.19c-0.65,5.32,5.59,5.13,8.83,3.96c4.19-1.51,4.99-2.63,8.17-5.57
				c3.65-3.37,7.82-6.78,12.97-7.27c2.43-0.23,8.16,1.88,6.59-2.88C467.92,256.1,466.68,255.12,465.42,254.28z"/>
			<circle fill="#00A651" cx="461.44" cy="263.24" r="0.49"/>
			<circle fill="#00A651" cx="465.07" cy="269.97" r="0.49"/>
			<circle fill="#00A651" cx="465" cy="255.18" r="0.49"/>
			<circle fill="#00A651" cx="453.2" cy="256.47" r="0.49"/>
			<circle fill="#00A651" cx="426.03" cy="259.56" r="0.49"/>
			<circle fill="#00A651" cx="419.67" cy="261.02" r="0.49"/>
			<path fill="#00A651" d="M430.65,254.69c-0.05,0.27-0.31,0.44-0.57,0.39c-0.27-0.05-0.44-0.31-0.39-0.57
				c0.05-0.26,0.31-0.44,0.57-0.39C430.53,254.17,430.7,254.42,430.65,254.69z"/>
			<circle fill="#ED1944" cx="452.26" cy="264.44" r="0.49"/>
			<path fill="#ED1944" d="M476.38,264.25c-0.05,0.27-0.31,0.44-0.57,0.39c-0.26-0.05-0.44-0.31-0.38-0.57
				c0.05-0.26,0.31-0.44,0.57-0.39C476.26,263.73,476.43,263.98,476.38,264.25z"/>
			<path fill="#ED1944" d="M447.54,255.87c-0.05,0.26-0.31,0.44-0.57,0.39c-0.27-0.05-0.44-0.31-0.38-0.57
				c0.05-0.26,0.31-0.44,0.57-0.39C447.42,255.35,447.6,255.61,447.54,255.87z"/>
			<circle fill="#ED1944" cx="445.83" cy="269.66" r="0.49"/>
			<circle fill="#ED1944" cx="440.7" cy="248.57" r="0.49"/>
			<circle fill="#ED1944" cx="459.33" cy="259.25" r="0.49"/>
			<circle fill="#ED1944" cx="463.26" cy="266.68" r="0.49"/>
			<circle fill="#FFE500" cx="458.63" cy="266.98" r="0.49"/>
			<circle fill="#FFE500" cx="473.42" cy="259.5" r="0.49"/>
			<circle fill="#FFE500" cx="446.7" cy="264.86" r="0.49"/>
			<circle fill="#FFE500" cx="444.01" cy="257.18" r="0.49"/>
			<circle fill="#FFE500" cx="438.03" cy="248.97" r="0.49"/>
			<circle fill="#FFE500" cx="447.56" cy="247.94" r="0.49"/>
			<path fill="#FFE500" d="M475.15,270.58c-0.05,0.26-0.31,0.44-0.57,0.39c-0.26-0.05-0.44-0.31-0.39-0.57
				c0.05-0.27,0.31-0.44,0.57-0.39C475.03,270.06,475.2,270.32,475.15,270.58z"/>
			<circle fill="#FFE500" cx="466.9" cy="275.65" r="0.49"/>
			<circle fill="#FFE500" cx="451.02" cy="269.78" r="0.49"/>
			<circle fill="#FFE500" cx="437.95" cy="274.02" r="0.49"/>
			<circle fill="#FFE500" cx="432.96" cy="268.47" r="0.49"/>
			<circle fill="#FFE500" cx="463.95" cy="262.14" r="0.49"/>
			<path fill="#F26122" d="M456.08,249.68c-0.05,0.26-0.31,0.44-0.57,0.39c-0.26-0.05-0.44-0.31-0.38-0.57
				c0.05-0.26,0.31-0.44,0.57-0.39C455.96,249.16,456.13,249.42,456.08,249.68z"/>
			<path fill="#F26122" d="M448.65,261.46c-0.05,0.26-0.31,0.44-0.57,0.39c-0.26-0.05-0.44-0.31-0.38-0.57
				c0.05-0.26,0.31-0.44,0.57-0.39C448.53,260.94,448.7,261.2,448.65,261.46z"/>
			<circle fill="#F26122" cx="469.78" cy="260.78" r="0.49"/>
			<circle fill="#F26122" cx="457.94" cy="263.36" r="0.49"/>
			<circle fill="#F26122" cx="427.93" cy="252.81" r="0.49"/>
			<circle fill="#F26122" cx="435.06" cy="258.13" r="0.49"/>
			<circle fill="#F26122" cx="418.57" cy="258.51" r="0.49"/>
			<circle fill="#F26122" cx="428.46" cy="256.75" r="0.49"/>
			<circle fill="#F26122" cx="439.76" cy="252.37" r="0.49"/>
			<path fill="#F26122" d="M447.38,252.69c-0.05,0.27-0.31,0.44-0.57,0.39c-0.27-0.05-0.44-0.31-0.39-0.57
				c0.05-0.27,0.31-0.44,0.57-0.39C447.26,252.16,447.43,252.42,447.38,252.69z"/>
			<circle fill="#00B0BF" cx="453.7" cy="259.55" r="0.49"/>
			<circle fill="#00B0BF" cx="460.42" cy="256.18" r="0.49"/>
			<circle fill="#00B0BF" cx="473.37" cy="266.95" r="0.49"/>
			<circle fill="#00B0BF" cx="468.03" cy="263.13" r="0.49"/>
			<circle fill="#00B0BF" cx="442.56" cy="251.57" r="0.49"/>
			<path fill="#00B0BF" d="M430.75,262.39c-0.05,0.26-0.31,0.44-0.57,0.39c-0.27-0.05-0.44-0.31-0.39-0.57
				c0.05-0.27,0.31-0.44,0.57-0.39C430.63,261.86,430.8,262.12,430.75,262.39z"/>
			<circle fill="#00B0BF" cx="421.17" cy="257.92" r="0.49"/>
			<circle fill="#00B0BF" cx="420.51" cy="264.37" r="0.49"/>
			<circle fill="#00B0BF" cx="469.61" cy="256.57" r="0.49"/>
			<circle fill="#00B0BF" cx="451.93" cy="248.16" r="0.49"/>
			<circle fill="#00B0BF" cx="471.23" cy="274.9" r="0.49"/>
			<path fill="#F27FB2" d="M466.46,266.61c-0.05,0.26-0.31,0.44-0.57,0.39c-0.27-0.05-0.44-0.31-0.39-0.57
				c0.05-0.26,0.31-0.44,0.57-0.39C466.34,266.09,466.52,266.34,466.46,266.61z"/>
			<circle fill="#F27FB2" cx="462.78" cy="259.42" r="0.49"/>
			<circle fill="#F27FB2" cx="471.64" cy="263.95" r="0.49"/>
			<circle fill="#F27FB2" cx="456.44" cy="254.64" r="0.49"/>
			<circle fill="#F27FB2" cx="445.73" cy="249.68" r="0.49"/>
			<circle fill="#F27FB2" cx="461.34" cy="251.68" r="0.49"/>
			<path fill="#F27FB2" d="M453.03,250.67c-0.05,0.26-0.31,0.44-0.57,0.39c-0.26-0.05-0.44-0.31-0.38-0.57
				c0.05-0.26,0.31-0.44,0.57-0.39C452.91,250.14,453.08,250.4,453.03,250.67z"/>
			<circle fill="#F27FB2" cx="441.7" cy="255.24" r="0.49"/>
			<circle fill="#F27FB2" cx="437.66" cy="260.13" r="0.49"/>
			<circle fill="#ED1944" cx="466.27" cy="259" r="0.49"/>
			<circle fill="#ED1944" cx="458.8" cy="270.2" r="0.49"/>
			<path fill="#ED1944" d="M468.94,272.86c-0.05,0.26-0.31,0.44-0.57,0.39c-0.27-0.05-0.44-0.31-0.39-0.57
				c0.05-0.27,0.31-0.44,0.57-0.39C468.81,272.34,468.99,272.59,468.94,272.86z"/>
			<path fill="#00A651" d="M449.45,266.86c-0.05,0.26-0.31,0.44-0.57,0.39c-0.27-0.05-0.44-0.31-0.39-0.57
				c0.05-0.26,0.31-0.44,0.57-0.39C449.33,266.34,449.5,266.59,449.45,266.86z"/>
			<path fill="#00A651" d="M441.98,267.63c-0.05,0.26-0.31,0.44-0.57,0.39c-0.27-0.05-0.44-0.31-0.39-0.57
				c0.05-0.26,0.31-0.44,0.57-0.39C441.86,267.11,442.03,267.37,441.98,267.63z"/>
			<circle fill="#00A651" cx="443.21" cy="259.21" r="0.49"/>
			<circle fill="#00A651" cx="469.35" cy="268.16" r="0.49"/>
			<path fill="#ED1944" d="M426.29,255.63c-0.05,0.26-0.31,0.44-0.57,0.39c-0.27-0.05-0.44-0.31-0.38-0.57
				c0.05-0.26,0.3-0.44,0.57-0.39C426.17,255.11,426.34,255.37,426.29,255.63z"/>
			<circle fill="#ED1944" cx="431.58" cy="258.15" r="0.49"/>
			<path fill="#ED1944" d="M424.86,264.02c-0.05,0.27-0.31,0.44-0.57,0.39c-0.26-0.05-0.44-0.31-0.39-0.57
				c0.05-0.26,0.31-0.44,0.57-0.39C424.74,263.5,424.91,263.75,424.86,264.02z"/>
			<circle fill="#FFE500" cx="428.81" cy="260.1" r="0.49"/>
			<circle fill="#FFE500" cx="434.23" cy="254.19" r="0.49"/>
			<circle fill="#FFE500" cx="423.03" cy="259.08" r="0.49"/>
			<circle fill="#FFE500" cx="438.66" cy="263.21" r="0.49"/>
			<path fill="#F26122" d="M431.33,268.63c-0.05,0.27-0.3,0.44-0.57,0.39c-0.27-0.05-0.44-0.31-0.39-0.57
				c0.05-0.26,0.3-0.44,0.57-0.39C431.21,268.11,431.39,268.36,431.33,268.63z"/>
			<circle fill="#F26122" cx="462.84" cy="272.47" r="0.49"/>
			<circle fill="#F26122" cx="477.64" cy="269.57" r="0.49"/>
			<circle fill="#00B0BF" cx="454.75" cy="267.97" r="0.49"/>
			<circle fill="#00B0BF" cx="441.83" cy="272.11" r="0.49"/>
			<path fill="#00B0BF" d="M437.54,266.38c-0.05,0.27-0.31,0.44-0.57,0.39c-0.27-0.05-0.44-0.31-0.39-0.57
				c0.05-0.26,0.31-0.44,0.57-0.39C437.42,265.85,437.6,266.11,437.54,266.38z"/>
			<circle fill="#00B0BF" cx="443.79" cy="248.11" r="0.49"/>
			<circle fill="#00B0BF" cx="433.6" cy="250.78" r="0.49"/>
			<circle fill="#F27FB2" cx="449.63" cy="258.47" r="0.49"/>
			<circle fill="#F27FB2" cx="453.99" cy="272.95" r="0.49"/>
			<path fill="#F27FB2" d="M423.88,255.18c-0.05,0.26-0.31,0.44-0.57,0.39c-0.27-0.05-0.44-0.31-0.38-0.57
				c0.05-0.26,0.31-0.44,0.57-0.39S423.94,254.91,423.88,255.18z"/>
			<circle fill="#F27FB2" cx="478.4" cy="266.13" r="0.49"/>
			<path fill="#F27FB2" d="M427.26,262.21c-0.05,0.26-0.31,0.44-0.57,0.39s-0.44-0.31-0.39-0.57c0.05-0.26,0.31-0.44,0.57-0.39
				C427.14,261.68,427.31,261.94,427.26,262.21z"/>
			<circle fill="#ED1944" cx="437.6" cy="255.34" r="0.49"/>
			<circle fill="#ED1944" cx="433.79" cy="264.16" r="0.49"/>
			<circle fill="#ED1944" cx="434.74" cy="271.6" r="0.49"/>
			<circle fill="#ED1944" cx="443.66" cy="263.58" r="0.49"/>
		</g>
		<g>
			<g>
				<g>
					<path fill="#603913" d="M453.44,228.37c0,0,0.04-0.07,0.12-0.2l0,0c0.08-0.13,0.18-0.32,0.29-0.55l0,0
						c0.21-0.46,0.44-1.07,0.51-1.7l0,0c0.07-0.66-0.03-1.3-0.46-1.84l0,0l0.45-0.36c0.55,0.69,0.66,1.51,0.58,2.26l0,0
						c-0.16,1.44-1,2.68-1.01,2.7l0,0L453.44,228.37L453.44,228.37z M453.9,224.08L453.9,224.08L453.9,224.08L453.9,224.08
						L453.9,224.08L453.9,224.08z"/>
				</g>
				<path fill-rule="evenodd" clip-rule="evenodd" fill="#AE86BD" d="M449.99,233.19c-1.72,15.52-2.19,19.75-2.19,19.75
					c1.74,2.18,5.97,0.66,5.97,0.66c1.04-9.38,2.75-24.86,2.75-24.86c-0.83-1.04-6.46,3.77-6.46,3.77"/>
				<path fill-rule="evenodd" clip-rule="evenodd" fill="#9565AB" d="M456.84,227.03c-0.31,9.46-1.62,5.7-1.62,5.7
					c-1.59,3.79-2.43,0.85-2.43,0.85c-1.34,5.5-2.7,2.16-2.7,2.16c-1.37,1.1-0.58-4.51-0.58-4.51
					C449.94,227.49,456.84,227.03,456.84,227.03z"/>
				<path fill-rule="evenodd" clip-rule="evenodd" fill="#FDBE16" d="M455.36,217.59c2.71,1.97,0.89,4.96,0.89,4.96
					c-1.48,2.88-2.16,2.52-2.16,2.52c-2.58-1.63-1.26-4.08-1.26-4.08c1.06-2.9,0.4-4.38,0.4-4.38L455.36,217.59z"/>
			</g>
			
				<linearGradient id="SVGID_9_" gradientUnits="userSpaceOnUse" x1="463.002" y1="98.0815" x2="466.6369" y2="101.0673" gradientTransform="matrix(0.9939 0.1101 -0.1101 0.9939 -0.0464 79.1074)">
				<stop  offset="0" style="stop-color:#FFFFFF"/>
				<stop  offset="1" style="stop-color:#9565AB"/>
			</linearGradient>
			<path fill-rule="evenodd" clip-rule="evenodd" fill="url(#SVGID_9_)" d="M455.12,228.11c-1.45,0-3.81,1.12-4.33,1.72
				c-0.7,0.81-0.91,2.51-0.88,3.61c0.03,0.88,1.05,2.49,1.89,1.27c0.27-0.39,0.18-0.98,0.45-1.36c0.54-0.76,0.5,0.02,1.12,0.26
				c0.69,0.26,0.97-0.74,1.2-1.18c0.14-0.27,0.12-0.55,0.48-0.65c0.34-0.09,0.47,0.29,0.9,0.22c0.3-0.57,0.13-1.45,0.18-2.09
				c0.03-0.42,0.28-1.06,0.01-1.44C455.93,228.22,455.57,228.11,455.12,228.11z"/>
			
				<linearGradient id="SVGID_10_" gradientUnits="userSpaceOnUse" x1="466.9121" y1="94.5146" x2="467.2367" y2="87.502" gradientTransform="matrix(0.9939 0.1101 -0.1101 0.9939 -0.0464 79.1074)">
				<stop  offset="0" style="stop-color:#FDBE16"/>
				<stop  offset="1" style="stop-color:#F89A1C"/>
			</linearGradient>
			<path fill-rule="evenodd" clip-rule="evenodd" fill="url(#SVGID_10_)" d="M454.25,218.45c0,1.06-0.22,1.51-0.67,2.39
				c-0.31,0.6-0.56,1.79,0.22,2.17c1.49,0.73,0.77-3.31,0.77-3.87L454.25,218.45z"/>
		</g>
	</g>
	<path fill="#F6A5BA" d="M450.02,283.01L450.02,283.01c-1.38,4.53-2.75,9.07-4.12,13.6c-0.26,0.86,1.03,1.42,1.3,0.55
		c1.38-4.53,2.75-9.07,4.13-13.6C451.58,282.7,450.28,282.14,450.02,283.01"/>
</g>
</svg>
