<?xml version="1.0" encoding="utf-8"?>
<!-- Generator: Adobe Illustrator 15.0.0, SVG Export Plug-In . SVG Version: 6.00 Build 0)  -->
<!DOCTYPE svg PUBLIC "-//W3C//DTD SVG 1.1//EN" "http://www.w3.org/Graphics/SVG/1.1/DTD/svg11.dtd">
<svg version="1.1" id="Layer_1" xmlns="http://www.w3.org/2000/svg" xmlns:xlink="http://www.w3.org/1999/xlink" x="0px" y="0px"
	 width="500px" height="385px" viewBox="0 0 500 385" enable-background="new 0 0 500 385" xml:space="preserve">
<path fill-rule="evenodd" clip-rule="evenodd" fill="#F4F4F4" d="M213.85,254.62c5.11-18.33,9.71-37.16,16.07-54.24
	c39.58-1.26,54.29-27.4,58.26-64.28c38.12-15.11,68.15-54.06,120.53-42.19c18.62-12.18,23.55-38.06,60.27-32.14
	c2.44-15.64,6.13-30.03,8.04-46.2c-2.01,0-4.02,0-6.03,0c-2.17-3.33-17.92-3.33-20.09,0C405.65,44.65,348.55,61.88,302.24,89.9
	c-8.75,1.29-22.71-2.62-28.12,2.01c-35.61-4.76-66.22,18.68-88.39-2.01c-18.5,12.31-43.38,18.23-60.27,32.14
	c8.56,7.5,17.35,14.79,24.11,24.11c-22.89,13.27-49.68,22.64-74.33,34.15c-5.56,5.04,11.55,4.41,8.04,14.06
	c-12.32,5.09-26.95,7.87-40.18,12.05c1.08,7.77-3.59,9.81-2.01,18.08c19.46,6.58,40.13-0.31,60.27,8.04
	c9.39,3.89,13.41,16,22.1,18.08C155.43,258.26,190.93,226.68,213.85,254.62z"/>
<path fill-rule="evenodd" clip-rule="evenodd" fill="#F4F4F4" d="M493.08,114c-9.53-14.57-18.79-29.43-24.11-48.21
	c-36.63-4.49-40.76,23.53-62.28,34.15c-45.5-14.77-77.82,25.2-114.51,38.17c-4.03,37.49-18.82,64.21-58.26,66.29
	c-6.8,19.32-14.61,37.63-18.08,60.27c-15.05-30.69-59.2-6.16-94.42-10.04c-5.86,22.23-29.07,40.85-16.07,64.28
	c38.51,0.34,59.21-17.13,76.34-38.17c24.94-10.52,57.83-4.51,74.33,10.04c1.13-9.17-3.56-12.51-2.01-22.1
	c18.34-12.96,34.42,9.09,48.21,6.03c6.62-7.52-2.89-17.27-2.01-28.12c0.93-11.45,10.96-19.74,12.05-30.13
	c-12.11-19.15-21.17-49.26,4.02-60.27c11.89,0.51,23.87,1.1,26.12-8.04c6.8-5.92,10.38-15.06,16.07-22.1
	c28.12-4.87,52.24,6.74,58.26,30.13c6.45-4.07,16.31-9.22,26.12-4.02C451.38,131.23,468.67,119.06,493.08,114z"/>
<path fill-rule="evenodd" clip-rule="evenodd" fill="#F4F4F4" d="M117.42,252.62c-16.51-24.34-64.75-16.95-94.42-28.12
	c-16.84,15.74-13.68,25.81-4.02,52.23c8.55,23.39,23.03,51.42,42.19,56.25c14.92,3.76,27.72-2.07,42.19-6.03
	C85.85,299.77,108.99,276.56,117.42,252.62z"/>
<path fill-rule="evenodd" clip-rule="evenodd" fill="#F4F4F4" d="M181.7,284.76c-13.69,21.8-34.55,36.43-68.3,38.17
	c0.75,6.62,4.69,10.04,8.04,14.06c23.16-13.75,53.08,12.42,62.28,32.14c11.61-0.89,20.58,0.84,30.13,2.01
	c5.18-33.65,31.05-46.63,44.2-72.32C241.23,281.32,209.98,275.18,181.7,284.76z"/>
</svg>
