<?xml version="1.0" encoding="utf-8"?>
<!-- Generator: Adobe Illustrator 15.0.0, SVG Export Plug-In . SVG Version: 6.00 Build 0)  -->
<!DOCTYPE svg PUBLIC "-//W3C//DTD SVG 1.1//EN" "http://www.w3.org/Graphics/SVG/1.1/DTD/svg11.dtd">
<svg version="1.1" id="Layer_1" xmlns="http://www.w3.org/2000/svg" xmlns:xlink="http://www.w3.org/1999/xlink" x="0px" y="0px"
	 width="1066px" height="706px" viewBox="0 0 1066 706" enable-background="new 0 0 1066 706" xml:space="preserve">
<path id="sp" fill="#D3D2D2" d="M1060.5,297.41l-3.14-6.93l-8.82-1.77l-5.88-1.16l-3.28-5.4l-5.06,1.31l-4.12,2.5l-5.57,2.3
	l-5.08-2.67l-5.44-0.19l-1.93-3.89l-4.61-2.92l-3.12-8.85l-8.39-4.18l-4.38,2.33l-5.5,0.92l-1.88,2.11l-4.33,0.85l-1.27,2
	l-5.52-2.32l-9.62,3.39l-4.2,2.25l-1.92,3.85l-9.11,3.4l-0.71,2.6l-11.61,3.01l-4.7-4.3l-4.01-0.32l-0.78,1.1l-4.16,4.06l-1.83-0.3
	l-0.09-1.84l-1.99-2.22l-3.77,1.08l-3.78,2.88l-2.05-0.85l1.66-5.75l-9.33,1.02l-1.85,3.97l4.87,3.95l-3.86-0.64l-7.82,4.96
	l-0.09,4.23l3.59,1.38l5.15-1.93l1.56,3.22l-5.67,3.5l-0.1,3.15l-4.25-1.48l-4.08,1.8l-1.2,2.61l-1.66-2.91l-1.67-2.72l-10.3,7.64
	l-8.81,0.33l-2.74,0.87l0.01-3.26l-2.08-0.94l-3.36,0.6l-6.75,2.3l-2.05-1.12l-6.14,1.37l-1.72,1.56l-2.15-2.91l0.61-5.81l3.82-5.52
	l-3.81-0.82l-7.83-3.03l-2.3-2.06l0.54-1.9l2.03-0.71l4.25,1.56l0.96-3.08l-2.48-6.31l0.76-6.67l-2.56-0.43l-9.17-3.49l-1.79-4.53
	l-8.01-2.04l-3.9-1.1l0.25-5.2l-2.75-0.81l-2.35-5.68l0.59-3.62l3.37-3.29l0.12-3.14l2.73-0.78l4.42-5.48l-4.81-5.33l-2.02-0.37
	l0.32-2.59l0.41-2.46l4.05-0.18l0.18-3.31l-3.49-4.23l-1.01-3.22l1.66-2.94l-2.85-5.98l4.32-4.87l0.83-9.38l5.24,0.83l2.15-5.34
	l2.83-1.99l1.98-6.98l-1.66-2.7l1.25-5.53l-2.97-3.95l-2.98-0.72l-2.71-1.62l-1.73,2.25l-3.28-4.09l-1.4-4.14l-3.06,0.4l-2.94,3.87
	l-3.27-1.06l-2.16-3.26l-4.23,1.1l-4.05-0.64l-1.1,2.76l-7.08,3.49l-4.96-1.1l-2.58-0.74l1.2-4.6l-2.48-1.93l-4.6-10.67l-1.01-3.95
	l-2.67,0.55l-1.93-1.66l-0.69-4.11l1.53-2.4l-2.13-3l-1.74-5.41l0.68-5.41l-3.58-4.16l-4.16-2.61l-1.55-3.29l1.84-4.25v-3.19
	l2.8-2.13l1.26-3.58l0.87-3l5.22,0.68l2.42-7.25l-6.48-14.01l-6.48-1.84l-5.99-4.54l-1.16-8.89l6.57-13.43l-2.28-3l-0.91-4.15
	l-5.03-3.67l-5.12-2.13l-2.12-2.13l-3.48-0.77l-2.61-2.94l2.13-2.51l-5.6-6.43l-5.14,2.49l-7.04,1.47l-2.31,3.25l-1.95,1.1
	l-2.26-0.55l-1.37-2.98l-3.52-2.61l-13.14,1.6l-3.1-0.64l-2.49,3.96l0.09,5.72L683.54,37l-3.58-2.06l-0.49-4.27l-3.28-2.96
	l-2.71,0.97L673,32.74l-2.41,3.1l-1.61,0.45l-1.93,2.34l-4.72,0.35l-2.69-2.17l-2.97-2.83l-4.24-6.02l-4.31-0.49l-2.16,5.22
	l3.61,5.4l-4.48,0.31l-4.11-2.39l-5.17,0.7l-4.35-0.63l-7.92,1.88l-8.55-0.72l-7.15,3.67l-7.34-0.8l-6.19,0.56l-7.39,1.4l-1.65,2.72
	l0.21,3.43l-3.45,5.4l1.32,3.7l0.21,4.27l1.66,4.11l-2.32,3.43l-4.09-2.45l-2.1-2.19l0.65-11.61l-2.22-10.75l-6.65-2.63l-3.01-0.37
	l-2.08,3.95l-1.69,5.76l-2.56,3.97l-4.64,2.63l-4.44-0.7L547.21,50l-3.42-7.59l-1.48-5.25l0.48-4.25l0.68-4.88l5.22-1.88l-0.97-5.22
	l-5.51-0.34l-6.53,2.61l-8.46-0.53l-3.87-3.29l-0.96-3.48l-6.96-1.35l-8.5,3.53L492.1,17.5l-8.94,1.69l-8.31-2.27l-5.41-0.1
	l-8.2-4.31l-9.97-1.44l-14.5,0.19l-8.35-7.71l-6.54-1.18l-9.87,4.15l-8.3,9.38l-11.84,2.68l-11.07,4.81l-7.83,4.88l-8.5,15.46
	l-1.16,6.38l-6.57,4.64l-19.33,3.48L328,71.48l-4.26,2.61l-6.43,9.28l-9.21,6.38l-3.67,11.83l2.8,15.96l-3.85,4.85l-6.12,0.03
	l-6.93,10.56l-3.95,5.11l-5.21,0.38l-0.63,8.36l2.33,5.65l-0.49,7.4l-5,5.1l-1.61,6.14l-5.33,5.63l-8.59-0.96l-4.74,6.56l6.32,9.85
	l-3.39,6.67l-6.84,2.8l-3.25,5.5l-1.66,3.24l-9.89,8.95l-5.62,13.05l-9.83,11.23l-19.83,12l-11.28,5.12l-10.94,9.32l-13.42,4.85
	l-11.67,10.72l-4.16,5.82c2.27-0.51,3.91-0.88,4.51-1.01c5.85-3.31,9.45-4.98,10.69-4.98c0.84-0.01,6.93-1.01,12.34-1.98
	c0.28-0.05,0.56-0.03,0.83,0.05l14.12,4.43l17.86-5.86c0.7-0.23,1.47,0.01,1.92,0.59c1.63,2.11,3.78,4.56,4.73,5.28
	c1.62-0.44,5.42-1.56,5.47-1.57c0.13-0.04,0.25-0.06,0.38-0.07l18.68-1.15c0.73-0.04,1.42,0.38,1.71,1.05l2.75,6.41l3.88-1.76
	l2.13-11.18c0.13-0.69,0.66-1.23,1.34-1.38l8.05-1.72c0.38-0.08,0.78-0.03,1.12,0.14l10.56,5.14l14.87,5.72
	c0.04,0.02,0.08,0.03,0.12,0.05l9.58,4.51l13.99,2.74l11.63-3.88c0.21-0.07,0.43-0.1,0.64-0.09l16.09,0.86
	c0.35,0.02,0.69,0.14,0.97,0.36l7.18,5.52l22.62,5.37c0.04,0.01,0.07,0.02,0.11,0.03l14.08,4.31c0.53,0.16,0.96,0.57,1.14,1.1
	l3.78,11.06l5.37,2.36l5.77-6.02c0.4-0.42,0.97-0.61,1.54-0.51l6.9,1.15c0.1,0.02,0.2,0.04,0.3,0.08l11.3,4.04l7.63-4.47
	c0.41-0.24,0.9-0.3,1.36-0.17c5.97,1.72,15.71,4.47,17.35,4.8c1.89-0.33,15.02-3.44,23.14-5.39c0.7-0.17,1.44,0.11,1.85,0.71
	l10.09,14.85l20.86,10.43c0.39,0.2,0.7,0.54,0.85,0.95l8.33,22.41c0.1,0.28,0.13,0.57,0.09,0.86l-2.5,16.7l6.36,12.73
	c0.18,0.37,0.23,0.78,0.14,1.18c-1.59,6.67-3.19,14.49-3.38,17.17c0.91,0.46,1.97,1.36,3.34,2.81c1.28,1.35,2.38,2.71,2.55,2.92
	l18.37,21.24c0.29,0.33,0.44,0.76,0.42,1.2l-0.26,7.32l12.15,12.98c0.43,0.46,0.58,1.12,0.39,1.72l-9.3,29.01l8.87,4.2
	c1.43-0.55,4.87-1.87,8.34-3.15c9.7-3.59,10.09-3.46,10.82-3.22c0.28,0.09,1.12,0.37,5.69,4.36l12.65-2.69
	c0.15-0.03,0.3-0.04,0.45-0.04l22.99,1.15c0.24,0.01,0.48,0.07,0.69,0.18l13.22,6.61c0.49,0.24,0.83,0.7,0.93,1.23
	c0.1,0.53-0.05,1.08-0.42,1.49l-7.43,8.26l-3.25,17.31l3.46,6.51l7.24-7.71c0.49-0.52,1.25-0.69,1.92-0.42l9.84,3.99l9.61-5.6
	c0.4-0.24,0.88-0.3,1.33-0.18c0.45,0.12,0.83,0.42,1.06,0.82l8.91,15.8c0.36,0.65,0.28,1.45-0.21,2l-3.13,3.55l5.41,4.58l8.31-2.33
	c0.5-0.14,1.04-0.05,1.47,0.25c1.59,1.11,2.98,2.1,4.18,2.98l9.23-7.83l0.41-9.71l5.37-8.15l25.47-20.56l35.67-20.4l19.59-14.66
	l2.68-0.97l0.99-4.79l0.95-4.43l5.99-5.22l37.07-20.5l13.61-4.42l2.7,1.74l3.89-6.18l1.27,0.29l1.4,5.85l5.37,1.6l3.66-5.33
	l5.91-0.13l1.6-2.91l6.36-14.33l11.87-2.99l8.82-3.25l7.9,0.14l14.72,2.88l10.73,0.37l5.62,4.88l13.61-4.29l-3.8-14.65l5.88-2.66
	l4.73-5.33l6.36,2.22l4.58-1.94l0.01-4.12l4.73,0.15l1.63-1.48l6.51,3.7l6.21-3.4l-4.73-4.29l5.54-3.25l-1.69-3.25l11.75-6.9
	c0,0,6.9,2.91,6.69,3.53c-0.32,0.97,10.61-3.09,10.61-3.09l-4.47-7.4l-10.02-8.19l6.16-5.44l2.9-16.67l3.86-0.12l3.81-5.01
	l5.04,0.48l5.74-4.63l5.57-0.07l3.89-3.34l3.38,5.17h2.05l4.26-2.05l14.95-3.48l2.98-7.18l7.75-5.41L1060.5,297.41z"/>
<path id="pr" fill="#D3D2D2" d="M669.95,552.87l-8.4,2.36c-0.56,0.16-1.16,0.03-1.6-0.35l-7.47-6.32c-0.36-0.3-0.58-0.74-0.61-1.2
	c-0.03-0.47,0.12-0.93,0.43-1.28l3.49-3.96l-7.43-13.19l-8.82,5.14c-0.46,0.27-1.03,0.31-1.53,0.11l-9.53-3.86l-8.09,8.61
	c-0.38,0.41-0.94,0.61-1.5,0.53c-0.56-0.07-1.04-0.41-1.31-0.91l-4.88-9.2c-0.19-0.35-0.25-0.75-0.17-1.14l3.45-18.39
	c0.06-0.31,0.2-0.61,0.42-0.84l6.23-6.92l-10.85-5.42l-22.4-1.12l-13.28,2.83c-0.54,0.12-1.1-0.03-1.51-0.4
	c-1.81-1.59-4.02-3.44-4.94-4.09c-2.12,0.55-10.34,3.58-17.7,6.42c-0.45,0.17-0.94,0.16-1.37-0.05l-10.92-5.17
	c-0.79-0.37-1.18-1.27-0.91-2.1l9.46-29.48l-11.94-12.76c-0.32-0.34-0.49-0.79-0.47-1.25l0.26-7.36l-17.94-20.75
	c-0.01-0.02-0.03-0.03-0.04-0.05c-1.77-2.22-3.91-4.38-4.71-4.8c-0.5,0-0.99-0.2-1.35-0.58c-0.7-0.73-1.25-1.3,0.83-11.4
	c0.74-3.58,1.55-7.12,1.88-8.51l-6.33-12.65c-0.16-0.32-0.22-0.68-0.17-1.04l2.52-16.8l-7.94-21.35l-20.65-10.32
	c-0.27-0.13-0.49-0.33-0.66-0.58l-9.67-14.23c-21.76,5.23-22.54,5.23-22.8,5.23c-0.27,0-1.08,0-17.58-4.75l-7.69,4.51
	c-0.44,0.26-0.98,0.31-1.46,0.14l-11.92-4.26l-5.84-0.97l-5.97,6.23c-0.51,0.53-1.29,0.68-1.96,0.39l-7.18-3.16
	c-0.44-0.2-0.79-0.57-0.95-1.03l-3.74-10.94l-13.18-4.03l-22.93-5.45c-0.24-0.06-0.46-0.16-0.66-0.31l-7.04-5.42l-15.22-0.82
	l-11.75,3.92c-0.29,0.1-0.59,0.12-0.89,0.06l-14.65-2.87c-0.14-0.03-0.28-0.07-0.41-0.13l-9.71-4.57l-14.88-5.72
	c-0.05-0.02-0.09-0.04-0.14-0.06l-10.09-4.91l-6.33,1.36l-2.08,10.93c-0.11,0.56-0.47,1.02-0.99,1.26l-6.32,2.87
	c-0.43,0.19-0.91,0.21-1.35,0.04c-0.44-0.17-0.79-0.51-0.97-0.94l-2.97-6.92l-17.26,1.06c-0.92,0.27-4.86,1.42-5.91,1.69
	c-1.32,0.33-2.58-0.51-5.17-3.45c-0.72-0.82-1.4-1.64-1.89-2.25l-17.24,5.66c-0.34,0.11-0.72,0.12-1.06,0.01l-14.25-4.47
	c-2.54,0.45-10.79,1.91-12.44,1.96c-1.03,0.21-5.6,2.57-9.29,4.66c-0.15,0.08-0.31,0.15-0.48,0.18c-2.66,0.59-5.57,1.25-8.56,1.92
	l-0.37,0.52l-18.18,6.52l-19.73,11.65l-7.42,10.56l-1.48,14l-9.96,22.17l-15.85,8.21l-6.92,1.36l-4.58,14.39l-0.78,6.91l-3.96,9.4
	l-1.84,12.08l0.44,4.77l-5.27,6.96l-13.83,8.54l-6.56,5.65l2.32,14.34l4.21,4.47l1.26,5.79l-5.92,8.58l-1.74,8.52l1.93,7.03
	l-3.98,12.52l-4.19,6.2l-1.69,10.09l-2.63,4.44l-0.32,6.18l-2.36,8.34l3.55,6.36l-2.62,4.37l-4.69,11.65L4.49,572.67l0.94,9.98
	l1.98,7.59l6.57,2.67l4.55-0.22l5.11,8.16l4.25-4.5l2.54-5.53l2.15,0.05l3.02-3.98l2.64-1.34l4.49,4.38l9.56-2.29l-1.08-3.04
	l4.99-5.56l-3.09,6.52l4.17,6.48l3.57-1.88l4.58-2.25l3.54,1.12l2.35,5.21l4.01-1.48l5.16,1.86l1.06,1.85l-2.84,2.1l2.52,5.22
	l2.4,5.21l-1.63,3.42l1.67,8.11l-0.28,6.62l6.8,5.62l3.52,2.57l-1.65,5.11l8.28,6.84l1.97,7.22l7.21,0.88l3.55,3.85l12.75-1.51
	l5.01-3.04l9.39,1.37l8.22,7.52l4.69,1.2l5.77,4.84l11.58-4.68l4.96,1.17l9.07-1.99l7.55,0.36l9.11,1.26l7.97,5.34l8.2-0.9
	l6.06,3.55l7.1-0.3l8.28,0.89l2.52,2.07l6.95,0.3l3.3-1.04l6.16,2.35l2.27,3.97l4.3,1.76l6.21,3.86l14.04,2.34l12.39-1.85l4.15,0.14
	l3.84-0.69l5.73,1.63l9.04-0.31l5.29,9.88l5.82,3.11l2.07-2.37l-1.03-2.37l14.67-3.55l3-7.61l-3.86-5.94l0.69-4.05l-3.7-4.44
	l4.5-8.21l17.13-8.89l7.03-0.6l5.53,4.95l5.07,0.31l3.01-2.83l1.87,0.91l2.81-3.08l4.92-1.51l4.79,3.68l1.23-3.44l-0.14-3.11
	l2.49-4.21l3.63-4.49l-0.48-2.84l2.72-2.5l5.38,0.69l4.25-3.78l6-0.18l2.54,2.34l6.94,3.23l-0.42,2.42l3.81,2.6l3.31-1.32
	l-1.12-3.66l3.05-3.27l5.13-0.23l4.99,2.73l3.57-2.9l3.55,1.6l3.3-2.73l5.07-0.56l3.73,1.02l1.41-2.25l4.13,0.36l5.93,1.03
	l6.55,7.16l5.96,2.2l6.85,5.93l10.86,4.25l7.42,0.34l5.02-5.34l9.87-1.94l3.23-3.26l3.55-1.86l6.65-6.61l5.68-2.26l9.87-0.58
	l8.13,0.79l6.43-3.71l35.2,0.14l3.11-8.91l-0.09-2.83l2.5-0.9l1.58-6.57l3.94-6.62l6.92-10.01l8.12-5.73l-4-4.13l-7.09,0.63
	l-2.77-3.52l-5.64-1.65l-7.96,1.04l-4.15-1.77l-2.32-5.19l-5.94-3.91l0.99-3.04l1.41,0.34l-0.79,2.44l5.86,3.34l2.83,2.73l0.39,1.43
	l10.41-0.24l7.79,3.14l6.32-5.64l-2.41-8.88l-6.89-1.62l8.26-2.61l5.61,2.24l2.96,1.18l-2.96,6.94l1.33,6.95l4.88,1.92l7.25-2.37
	l3.35-8.37l15.35-13.03C671.8,554.18,670.86,553.51,669.95,552.87z"/>
</svg>
